<?xml version="1.0" standalone="no"?>
<!DOCTYPE svg PUBLIC "-//W3C//DTD SVG 1.1//EN" "http://www.w3.org/Graphics/SVG/1.1/DTD/svg11.dtd" >
<svg xmlns="http://www.w3.org/2000/svg" xmlns:xlink="http://www.w3.org/1999/xlink" version="1.1">
<metadata>
Created by FontForge 20170731 at Wed Jul  7 18:41:10 2021
 By Aleksey,,,
Copyright (c) 2016 by Matthew Desmond. All rights reserved.
</metadata>
<defs>
<font id="AbelPro-Regular" horiz-adv-x="929" >
  <font-face 
    font-family="Abel Pro"
    font-weight="400"
    font-stretch="normal"
    units-per-em="2048"
    panose-1="2 0 5 6 3 0 0 2 0 4"
    ascent="1536"
    descent="-512"
    x-height="1024"
    cap-height="1434"
    bbox="-102 -604 1946 2005"
    underline-thickness="81"
    underline-position="-490"
    unicode-range="U+000D-FB02"
  />
<missing-glyph horiz-adv-x="2048" 
 />
    <glyph glyph-name=".notdef" horiz-adv-x="2048" 
 />
    <glyph glyph-name=".null" horiz-adv-x="0" 
 />
    <glyph glyph-name="nonmarkingreturn" horiz-adv-x="682" 
 />
    <glyph glyph-name="NULL" horiz-adv-x="0" 
 />
    <glyph glyph-name="NULL" horiz-adv-x="0" 
 />
    <glyph glyph-name="CR" unicode="&#xd;" horiz-adv-x="471" 
 />
    <glyph glyph-name="space" unicode=" " horiz-adv-x="471" 
 />
    <glyph glyph-name="exclam" unicode="!" horiz-adv-x="428" 
d="M305 1434l-55 -1000h-72l-55 1000h182zM291 0h-154v154h154v-154z" />
    <glyph glyph-name="quotedbl" unicode="&#x22;" horiz-adv-x="645" 
d="M276 1434l-51 -441h-51l-51 441h153zM522 1434l-51 -441h-51l-51 441h153z" />
    <glyph glyph-name="numbersign" unicode="#" horiz-adv-x="1310" 
d="M164 967v102h235l31 365h121l-31 -365h332l31 365h121l-31 -365h215v-102h-225l-41 -500h225v-102h-236l-30 -365h-121l31 365h-332l-31 -365h-121l31 365h-215v102h225l41 500h-225zM510 967l-41 -500h332l41 500h-332z" />
    <glyph glyph-name="dollar" unicode="$" horiz-adv-x="1062" 
d="M594 -246h-102v226q-143 0 -246 103t-103 249v57l129 21v-78q0 -93 63.5 -159t156.5 -71v582q-47 18 -75 29.5t-69.5 32.5t-66.5 40t-54.5 49t-45.5 63t-27 78.5t-11 98.5v27q0 145 103 248.5t246 103.5v184h102v-184q142 -5 244 -107t102 -245v-37l-129 -21v58
q0 91 -63 158t-154 71v-555q44 -17 75 -30t71 -34t67.5 -42t56.5 -52t46.5 -65t28.5 -79.5t11 -98.5v-43q0 -146 -103 -249t-249 -103h-4v-226zM821 332v43q0 104 -60 166t-167 104v-543q92 0 159.5 68t67.5 162zM272 1102v-27q0 -97 56.5 -154.5t163.5 -103.5v514
q-93 -4 -156.5 -71t-63.5 -158z" />
    <glyph glyph-name="percent" unicode="%" horiz-adv-x="1382" 
d="M528 1264v-349q0 -73 -52 -125.5t-126 -52.5h-28q-74 0 -126.5 52.5t-52.5 125.5v349q0 73 52.5 125.5t126.5 52.5h28q74 0 126 -52.5t52 -125.5zM430 915v349q0 35 -24.5 58.5t-59.5 23.5h-20q-35 0 -59.5 -23.5t-24.5 -58.5v-349q0 -35 24 -58t60 -23h20q36 0 60 23
t24 58zM1239 518v-348q0 -73 -52 -125.5t-126 -52.5h-29q-74 0 -126 52.5t-52 125.5v348q0 73 52 125.5t126 52.5h29q74 0 126 -52.5t52 -125.5zM1141 170v348q0 35 -24.5 58.5t-59.5 23.5h-21q-35 0 -59.5 -23.5t-24.5 -58.5v-348q0 -35 24.5 -58.5t59.5 -23.5h21
q35 0 59.5 23.5t24.5 58.5zM340 0h-115l817 1434h115z" />
    <glyph glyph-name="ampersand" unicode="&#x26;" horiz-adv-x="1271" 
d="M502 782h606v-120h-199v-345q5 -97 52.5 -156t136.5 -59h30l-18 -122h-18q-84 0 -149.5 36t-104.5 101q-51 -64 -123.5 -100.5t-157.5 -36.5h-61q-146 0 -249.5 103t-103.5 249v78q0 101 50.5 183.5t136.5 127.5q-86 45 -136.5 127.5t-50.5 183.5v70q0 146 103.5 249
t249.5 103h61q146 0 249 -103t103 -249v-10l-129 -21v31q0 94 -67.5 161.5t-161.5 67.5h-49q-94 0 -162 -67.5t-68 -161.5v-90q0 -94 68 -162t162 -68zM502 102h49q91 0 158 63.5t71 156.5v337h-278q-94 0 -162 -67.5t-68 -161.5v-98q0 -94 68 -162t162 -68z" />
    <glyph glyph-name="quotesingle" unicode="'" horiz-adv-x="399" 
d="M297 1434l-102 -441h-52v441h154z" />
    <glyph glyph-name="parenleft" unicode="(" horiz-adv-x="684" 
d="M123 598q0 163 31 309.5t90.5 270.5t134 227t172.5 201l72 -72q-174 -182 -275.5 -421t-101.5 -515t101.5 -515t275.5 -421l-72 -72q-201 201 -314.5 447t-113.5 561z" />
    <glyph glyph-name="parenright" unicode=")" horiz-adv-x="684" 
d="M561 598q0 -315 -113.5 -561t-314.5 -447l-72 72q174 182 275.5 421t101.5 515t-101.5 515t-275.5 421l72 72q98 -98 172.5 -201t134 -227t90.5 -270.5t31 -309.5z" />
    <glyph glyph-name="asterisk" unicode="*" horiz-adv-x="993" 
d="M668 686l-170 287l-172 -287l-119 86l221 250l-326 74l45 137l308 -131l-31 332h145l-30 -332l307 131l45 -137l-326 -74l221 -250z" />
    <glyph glyph-name="plus" unicode="+" horiz-adv-x="1187" 
d="M82 653v129h446v447h129v-447h449v-129h-449v-448h-129v448h-446z" />
    <glyph glyph-name="comma" unicode="," horiz-adv-x="440" 
d="M297 154l-102 -441h-52v441h154z" />
    <glyph glyph-name="hyphen" unicode="-" horiz-adv-x="587" 
d="M485 627h-383v116h383v-116z" />
    <glyph glyph-name="period" unicode="." horiz-adv-x="440" 
d="M297 0h-154v154h154v-154z" />
    <glyph glyph-name="slash" unicode="/" horiz-adv-x="782" 
d="M170 -123h-129l571 1679h129z" />
    <glyph glyph-name="zero" unicode="0" horiz-adv-x="1052" 
d="M909 1102v-770q0 -146 -103 -249t-249 -103h-61q-146 0 -249.5 103t-103.5 249v770q0 146 103.5 249t249.5 103h61q146 0 249 -103t103 -249zM780 332v770q0 94 -67.5 161.5t-161.5 67.5h-49q-94 0 -162 -67.5t-68 -161.5v-770q0 -94 68 -162t162 -68h49q94 0 161.5 68
t67.5 162z" />
    <glyph glyph-name="one" unicode="1" horiz-adv-x="1058" 
d="M977 0h-813v123h342v1188l-342 -144v123l342 144h129v-1311h342v-123z" />
    <glyph glyph-name="two" unicode="2" horiz-adv-x="1011" 
d="M520 1331h-49q-94 0 -161.5 -67.5t-67.5 -161.5v-58l-129 21v37q0 146 103 249t249 103h61q150 0 251.5 -103t101.5 -270q0 -281 -297 -649q-136 -164 -297 -309h604v-123h-807v102q184 150 334 320q334 378 334 659q0 121 -67 185.5t-163 64.5z" />
    <glyph glyph-name="three" unicode="3" horiz-adv-x="1052" 
d="M909 430v-98q0 -146 -103 -249t-249 -103h-61q-146 0 -249.5 103t-103.5 249v37l129 20v-57q0 -94 68 -162t162 -68h49q94 0 161.5 68t67.5 162v119q0 94 -67.5 161.5t-161.5 67.5h-96v123h96q94 0 161.5 67.5t67.5 161.5v70q0 94 -67.5 161.5t-161.5 67.5h-49
q-94 0 -162 -67.5t-68 -161.5v-58l-129 21v37q0 146 103.5 249t249.5 103h61q146 0 249 -103t103 -249v-49q0 -102 -50 -184.5t-136 -127.5q86 -45 136 -127.5t50 -183.5z" />
    <glyph glyph-name="four" unicode="4" horiz-adv-x="1032" 
d="M889 248h-123v-248h-129v248h-576v61l637 1125h68v-1063h123v-123zM637 371v710l-395 -710h395z" />
    <glyph glyph-name="five" unicode="5" horiz-adv-x="1052" 
d="M909 610v-278q0 -146 -103 -249t-249 -103h-61q-146 0 -249.5 103t-103.5 249v22h129v-22q0 -94 68 -162t162 -68h49q94 0 161.5 68t67.5 162v278q0 94 -67.5 162t-161.5 68h-49q-94 0 -162 -68t-68 -162h-129l82 824h613v-123h-492l-47 -441q103 93 238 93h20
q146 0 249 -103.5t103 -249.5z" />
    <glyph glyph-name="six" unicode="6" horiz-adv-x="1052" 
d="M930 512v-180q0 -146 -103 -249t-249 -103h-62q-146 0 -249 103t-103 249v770q0 146 103 249t249 103h62q146 0 249 -103t103 -249v-37l-129 -21v58q0 94 -68 161.5t-162 67.5h-49q-94 0 -161.5 -67.5t-67.5 -161.5v-357q51 55 119.5 87t144.5 32h21q146 0 249 -103
t103 -249zM801 332v180q0 94 -68 161.5t-162 67.5h-49q-94 0 -161.5 -67.5t-67.5 -161.5v-180q0 -94 67.5 -162t161.5 -68h49q94 0 162 68t68 162z" />
    <glyph glyph-name="seven" unicode="7" horiz-adv-x="1052" 
d="M950 1372l-561 -1372h-135l537 1311h-498v-191h-129v314h786v-62z" />
    <glyph glyph-name="eight" unicode="8" horiz-adv-x="1052" 
d="M909 451v-119q0 -146 -103 -249t-249 -103h-61q-146 0 -249.5 103t-103.5 249v119q0 90 41.5 165.5t112.5 124.5q-71 49 -112.5 125t-41.5 166v70q0 146 103.5 249t249.5 103h61q146 0 249 -103t103 -249v-70q0 -90 -41 -166.5t-112 -124.5q71 -48 112 -124t41 -166z
M780 1032v70q0 94 -67.5 161.5t-161.5 67.5h-49q-94 0 -162 -67.5t-68 -161.5v-70q0 -94 68 -161.5t162 -67.5h49q94 0 161.5 67.5t67.5 161.5zM780 332v119q0 94 -67.5 161.5t-161.5 67.5h-49q-94 0 -162 -67.5t-68 -161.5v-119q0 -94 68 -162t162 -68h49q94 0 161.5 68
t67.5 162z" />
    <glyph glyph-name="nine" unicode="9" horiz-adv-x="1052" 
d="M930 1102v-770q0 -146 -103 -249t-249 -103h-62q-146 0 -249 103t-103 249v37l129 20v-57q0 -94 67.5 -162t161.5 -68h49q94 0 162 68t68 162v356q-51 -55 -119.5 -87t-144.5 -32h-21q-146 0 -249 103.5t-103 249.5v180q0 146 103 249t249 103h62q146 0 249 -103
t103 -249zM801 922v180q0 94 -68 161.5t-162 67.5h-49q-94 0 -161.5 -67.5t-67.5 -161.5v-180q0 -94 67.5 -162t161.5 -68h49q94 0 162 68t68 162z" />
    <glyph glyph-name="colon" unicode=":" horiz-adv-x="440" 
d="M297 870h-154v154h154v-154zM297 0h-154v154h154v-154z" />
    <glyph glyph-name="semicolon" unicode=";" horiz-adv-x="440" 
d="M297 870h-154v154h154v-154zM297 154l-102 -441h-52v441h154z" />
    <glyph glyph-name="less" unicode="&#x3c;" horiz-adv-x="1249" 
d="M102 791l1024 456v-141l-878 -389l878 -387v-142l-1024 457v146z" />
    <glyph glyph-name="equal" unicode="=" horiz-adv-x="1351" 
d="M164 973h1024v-129h-1024v129zM164 592h1024v-129h-1024v129z" />
    <glyph glyph-name="greater" unicode="&#x3e;" horiz-adv-x="1249" 
d="M123 330l876 387l-876 389v141l1024 -456v-146l-1024 -457v142z" />
    <glyph glyph-name="question" unicode="?" horiz-adv-x="950" 
d="M485 0h-153v154h153v-154zM473 473v-39h-129v39q0 71 20.5 127.5t54 94t73.5 69.5t79.5 62.5t73 64t54 82.5t20.5 110v19q0 94 -68 161.5t-162 67.5h-28q-94 0 -162 -67.5t-68 -161.5v-58l-129 21v37q0 146 103.5 249t249.5 103h41q146 0 249 -103t103 -249v-19
q0 -75 -20.5 -135.5t-54 -100.5t-73.5 -73.5t-79.5 -63.5t-73 -62t-54 -76.5t-20.5 -98.5z" />
    <glyph glyph-name="at" unicode="@" horiz-adv-x="2045" 
d="M1411 1024l-106 -770q-26 -195 149 -195q81 0 154.5 75t120.5 212.5t47 302.5q0 198 -75 352t-223.5 244t-349.5 90q-180 0 -340.5 -77t-273.5 -206t-178.5 -303.5t-65.5 -365.5q0 -149 40.5 -274.5t117.5 -219.5t197 -147t270 -53q107 0 206 25t163 63l41 -94
q-93 -57 -206 -85t-220 -28q-173 0 -313 61t-232 168t-141.5 252.5t-49.5 315.5q0 216 78 415.5t210.5 347.5t319.5 236t394 88q173 0 316 -60t239.5 -165t149.5 -249.5t53 -313.5q0 -99 -18 -198.5t-57 -193t-93.5 -166t-133.5 -116t-171 -43.5q-184 0 -256 155
q-52 -58 -120.5 -91t-142.5 -33h-30q-122 0 -198.5 90t-59.5 211l63 462q17 124 119 212.5t225 88.5h31q74 0 133 -33t92 -91l84 104h41zM811 750l-68 -476q-11 -71 31 -124.5t123 -53.5h82q73 0 132 52t71 126l67 476q8 69 -37 123.5t-116 54.5h-82q-73 0 -132 -52
t-71 -126z" />
    <glyph glyph-name="A" unicode="A" horiz-adv-x="950" 
d="M797 0l-95 334h-454l-94 -334h-134l420 1434h68l422 -1434h-133zM471 1118l-188 -661h385l-189 661l-4 53z" />
    <glyph glyph-name="B" unicode="B" horiz-adv-x="1052" 
d="M971 444v-92q0 -146 -103.5 -249t-249.5 -103h-454v1434h454q146 0 249.5 -103.5t103.5 -249.5v-14q0 -101 -50.5 -183.5t-136.5 -127.5q86 -45 136.5 -128t50.5 -184zM842 352v113q0 94 -68 161.5t-162 67.5h-319v-571h319q94 0 162 67.5t68 161.5zM842 1047v34
q0 94 -68 162t-162 68h-319v-494h319q94 0 162 68t68 162z" />
    <glyph glyph-name="C" unicode="C" horiz-adv-x="1073" 
d="M950 389v-57q0 -146 -103 -249t-249 -103h-102q-146 0 -249.5 103t-103.5 249v770q0 146 103.5 249t249.5 103h102q146 0 249 -103t103 -249v-58l-129 -20v78q0 94 -67.5 161.5t-161.5 67.5h-90q-94 0 -162 -67.5t-68 -161.5v-770q0 -94 68 -162t162 -68h90
q94 0 161.5 68t67.5 162v78z" />
    <glyph glyph-name="D" unicode="D" horiz-adv-x="1114" 
d="M971 1081v-729q0 -146 -103.5 -249t-249.5 -103h-454v1434h454q146 0 249.5 -103.5t103.5 -249.5zM842 352v729q0 94 -68 162t-162 68h-319v-1188h319q94 0 162 67.5t68 161.5z" />
    <glyph glyph-name="E" unicode="E" horiz-adv-x="1052" 
d="M971 0h-807v1434h807v-123h-678v-533h549v-123h-549v-532h678v-123z" />
    <glyph glyph-name="F" unicode="F" horiz-adv-x="1011" 
d="M971 1311h-678v-533h549v-123h-549v-655h-129v1434h807v-123z" />
    <glyph glyph-name="G" unicode="G" horiz-adv-x="1093" 
d="M950 754v-754h-41l-75 115q-104 -135 -263 -135h-75q-146 0 -249.5 103t-103.5 249v770q0 146 103.5 249t249.5 103h102q146 0 249 -103t103 -249v-58l-129 -20v78q0 94 -67.5 161.5t-161.5 67.5h-90q-94 0 -162 -67.5t-68 -161.5v-770q0 -94 68 -162t162 -68h90
q94 0 161.5 68t67.5 162v299h-229v123h358z" />
    <glyph glyph-name="H" unicode="H" horiz-adv-x="1134" 
d="M971 0h-129v655h-549v-655h-129v1434h129v-656h549v656h129v-1434z" />
    <glyph glyph-name="I" unicode="I" horiz-adv-x="456" 
d="M293 0h-129v1434h129v-1434z" />
    <glyph glyph-name="J" unicode="J" 
d="M807 1434v-1102q0 -146 -103 -249t-249 -103h-41q-146 0 -249.5 103t-103.5 249v57l129 21v-78q0 -94 68 -162t162 -68h29q94 0 161.5 68t67.5 162v1102h129z" />
    <glyph glyph-name="K" unicode="K" horiz-adv-x="1064" 
d="M1024 0h-160l-540 717l540 717h160l-551 -717zM293 0h-129v1434h129v-1434z" />
    <glyph glyph-name="L" unicode="L" horiz-adv-x="862" 
d="M821 0h-678v1434h129v-1311h549v-123z" />
    <glyph glyph-name="M" unicode="M" horiz-adv-x="1339" 
d="M1176 0h-129v983l-9 -61l-333 -922h-68l-336 922l-8 61v-983h-129v1434h67l435 -1176l4 -53l4 53l434 1176h68v-1434z" />
    <glyph glyph-name="N" unicode="N" horiz-adv-x="1134" 
d="M971 0h-68l-598 1044l-12 62v-1106h-129v1434h67l598 -1045l13 -61v1106h129v-1434z" />
    <glyph glyph-name="O" unicode="O" horiz-adv-x="1093" 
d="M950 1102v-770q0 -146 -103 -249t-249 -103h-102q-146 0 -249.5 103t-103.5 249v770q0 146 103.5 249t249.5 103h102q146 0 249 -103t103 -249zM821 332v770q0 94 -67.5 161.5t-161.5 67.5h-90q-94 0 -162 -67.5t-68 -161.5v-770q0 -94 68 -162t162 -68h90q94 0 161.5 68
t67.5 162z" />
    <glyph glyph-name="P" unicode="P" horiz-adv-x="1052" 
d="M971 1081v-178q0 -146 -103.5 -249t-249.5 -103h-325v-551h-129v1434h454q146 0 249.5 -103.5t103.5 -249.5zM842 903v178q0 94 -68 162t-162 68h-319v-637h319q94 0 162 67.5t68 161.5z" />
    <glyph glyph-name="Q" unicode="Q" horiz-adv-x="1093" 
d="M950 1102v-770q0 -138 -94.5 -239t-230.5 -113l131 -295h-129l-131 295q-146 0 -249.5 103t-103.5 249v770q0 146 103.5 249t249.5 103h102q146 0 249 -103t103 -249zM821 332v770q0 94 -67.5 161.5t-161.5 67.5h-90q-94 0 -162 -67.5t-68 -161.5v-770q0 -94 68 -162
t162 -68h90q94 0 161.5 68t67.5 162z" />
    <glyph glyph-name="R" unicode="R" horiz-adv-x="1069" 
d="M987 0h-149l-389 612h-177v-612h-129v1434h455q146 0 249 -103.5t103 -249.5v-116q0 -146 -103 -249.5t-249 -103.5zM821 965v116q0 94 -67.5 162t-161.5 68h-320v-576h320q94 0 161.5 68t67.5 162z" />
    <glyph glyph-name="S" unicode="S" horiz-adv-x="1062" 
d="M950 375v-43q0 -145 -107.5 -248.5t-254.5 -103.5h-103q-147 0 -254.5 103.5t-107.5 248.5v57l129 21v-78q0 -93 72 -161.5t168 -68.5h90q96 0 167.5 68.5t71.5 161.5v43q0 63 -23 111.5t-62.5 79.5t-90.5 56t-107 45.5t-112 42t-107 52.5t-90.5 70.5t-62.5 101.5
t-23 141v27q0 146 103.5 249t249.5 103h92q146 0 249 -103t103 -249v-37l-129 -21v58q0 94 -67.5 161.5t-161.5 67.5h-80q-94 0 -162 -67.5t-68 -161.5v-27q0 -75 37.5 -129t97 -86.5t132 -60t145 -60t132 -75t97 -116t37.5 -173.5z" />
    <glyph glyph-name="T" unicode="T" horiz-adv-x="894" 
d="M854 1311h-342v-1311h-129v1311h-342v123h813v-123z" />
    <glyph glyph-name="U" unicode="U" horiz-adv-x="1093" 
d="M950 1434v-1102q0 -146 -103 -249t-249 -103h-102q-146 0 -249.5 103t-103.5 249v1102h129v-1102q0 -94 68 -162t162 -68h90q94 0 161.5 68t67.5 162v1102h129z" />
    <glyph glyph-name="V" unicode="V" horiz-adv-x="950" 
d="M154 1434l317 -1119l4 -53l4 53l318 1119h133l-422 -1434h-68l-420 1434h134z" />
    <glyph glyph-name="W" unicode="W" horiz-adv-x="1542" 
d="M1501 1434l-379 -1434h-67l-279 1079l-4 56l-6 -56l-277 -1079h-67l-381 1434h129l281 -1090l4 -53l4 53l276 1090h72l276 -1090l4 -53l5 53l280 1090h129z" />
    <glyph glyph-name="X" unicode="X" horiz-adv-x="991" 
d="M930 0h-139l-295 596l-295 -596h-140l365 737l-344 697h139l275 -555l274 555h139l-344 -697z" />
    <glyph glyph-name="Y" unicode="Y" horiz-adv-x="950" 
d="M909 1434l-368 -748v-686h-129v684l-371 750h139l295 -596l295 596h139z" />
    <glyph glyph-name="Z" unicode="Z" horiz-adv-x="970" 
d="M889 0h-807v61l639 1250h-619v123h787v-62l-639 -1249h639v-123z" />
    <glyph glyph-name="bracketleft" unicode="[" horiz-adv-x="632" 
d="M530 -299v-111h-366v2016h366v-111h-243v-1794h243z" />
    <glyph glyph-name="backslash" unicode="\" horiz-adv-x="782" 
d="M741 -123h-129l-571 1679h129z" />
    <glyph glyph-name="bracketright" unicode="]" horiz-adv-x="632" 
d="M102 -410v111h244v1794h-244v111h367v-2016h-367z" />
    <glyph glyph-name="asciicircum" unicode="^" horiz-adv-x="1103" 
d="M621 1434l360 -658h-137l-293 539l-291 -539h-137l360 658h138z" />
    <glyph glyph-name="underscore" unicode="_" horiz-adv-x="1122" 
d="M-2 -293h1126v-117h-1126v117z" />
    <glyph glyph-name="grave" unicode="`" horiz-adv-x="778" 
d="M481 1188l-276 246h205l163 -246h-92z" />
    <glyph glyph-name="a" unicode="a" horiz-adv-x="940" 
d="M807 0h-41l-68 102q-42 -57 -105.5 -89.5t-137.5 -32.5h-31q-124 0 -212.5 88t-88.5 213v10q0 125 88.5 213t212.5 88h260v158q0 74 -52 126t-126 52h-72q-74 0 -126 -52t-52 -126v-37l-123 20v10q0 125 88.5 213t212.5 88h72q124 0 212.5 -88t88.5 -213v-743zM684 274
v222h-260q-73 0 -125.5 -52.5t-52.5 -126.5v-43q0 -74 52 -126t126 -52h82q74 0 126 52t52 126z" />
    <glyph glyph-name="b" unicode="b" horiz-adv-x="940" 
d="M817 743v-462q0 -125 -88.5 -213t-212.5 -88h-82q-124 0 -212.5 88t-88.5 213v1153h123v-496q88 106 229 106h31q124 0 212.5 -88t88.5 -213zM694 274v476q0 74 -52 126t-126 52h-82q-74 0 -126 -52t-52 -126v-476q0 -74 52 -126t126 -52h82q74 0 126 52t52 126z" />
    <glyph glyph-name="c" unicode="c" 
d="M807 322v-41q0 -125 -88.5 -213t-212.5 -88h-82q-124 0 -212.5 88t-88.5 213v462q0 125 88.5 213t212.5 88h82q124 0 212.5 -88t88.5 -213v-41l-123 -20v68q0 74 -52 126t-126 52h-82q-74 0 -126 -52t-52 -126v-476q0 -74 52 -126t126 -52h82q74 0 126 52t52 126v68z" />
    <glyph glyph-name="d" unicode="d" horiz-adv-x="950" 
d="M807 0h-41l-68 104q-42 -58 -105.5 -91t-137.5 -33h-31q-124 0 -212.5 88t-88.5 213v462q0 125 88.5 213t212.5 88h31q141 0 229 -106v496h123v-1434zM684 274v476q0 74 -52 126t-126 52h-82q-74 0 -126 -52t-52 -126v-476q0 -74 52 -126t126 -52h82q74 0 126 52t52 126z
" />
    <glyph glyph-name="e" unicode="e" 
d="M807 322v-41q0 -125 -88.5 -213t-212.5 -88h-82q-124 0 -212.5 88t-88.5 213v462q0 125 88.5 213t212.5 88h82q124 0 212.5 -88t88.5 -213v-241h-561v-228q0 -74 52 -126t126 -52h82q74 0 126 52t52 126v68zM684 598v152q0 74 -52 126t-126 52h-82q-74 0 -126 -52
t-52 -126v-152h438z" />
    <glyph glyph-name="f" unicode="f" horiz-adv-x="587" 
d="M588 1317h-113q-61 0 -104 -43t-43 -105v-145h239v-117h-239v-907h-123v907h-185v117h185v139q0 110 80 190.5t190 80.5h113v-117z" />
    <glyph glyph-name="g" unicode="g" 
d="M817 -125v-4q0 -123 -87 -202t-214 -79h-51q-127 0 -214 79t-87 202v4q0 118 82 197q-48 30 -76.5 79.5t-28.5 108.5q0 115 86 176q-48 42 -76 102t-28 128v77q0 125 88.5 213t212.5 88h51q74 0 138 -33t106 -91l67 104h41v-358q0 -124 -88.5 -212.5t-212.5 -88.5h-178
q-43 0 -73.5 -31t-30.5 -74t30.5 -73.5t73.5 -30.5h168q127 0 214 -79t87 -202zM705 659v91q0 73 -52.5 125.5t-126.5 52.5h-102q-74 0 -126 -52t-52 -126v-91q0 -73 52 -125.5t126 -52.5h102q74 0 126.5 52.5t52.5 125.5zM700 -135v16q0 72 -51 115t-127 43h-63
q-76 0 -127 -43t-51 -115v-16q0 -72 51 -115t127 -43h63q76 0 127 43t51 115z" />
    <glyph glyph-name="h" unicode="h" horiz-adv-x="960" 
d="M827 0h-122v750q0 73 -52.5 125.5t-126.5 52.5h-82q-74 0 -126 -52t-52 -126v-750h-123v1434h123v-496q42 50 102 78t128 28h30q124 0 212.5 -88t88.5 -213v-743z" />
    <glyph glyph-name="i" unicode="i" horiz-adv-x="409" 
d="M276 1270h-143v164h143v-164zM266 0h-123v1024h123v-1024z" />
    <glyph glyph-name="j" unicode="j" horiz-adv-x="409" 
d="M276 1270h-143v164h143v-164zM266 1024v-1133q0 -125 -88 -213t-213 -88v117q73 0 125.5 52.5t52.5 125.5v1139h123z" />
    <glyph glyph-name="k" unicode="k" horiz-adv-x="870" 
d="M868 0h-159l-418 512l418 512h159l-428 -512zM266 0h-123v1434h123v-1434z" />
    <glyph glyph-name="l" unicode="l" horiz-adv-x="409" 
d="M266 0h-123v1434h123v-1434z" />
    <glyph glyph-name="m" unicode="m" horiz-adv-x="1480" 
d="M1348 0h-123v750q0 74 -52.5 126t-125.5 52h-62q-73 0 -125.5 -52t-52.5 -126v-750h-123v750q0 74 -52 126t-126 52h-62q-74 0 -126 -52t-52 -126v-750h-123v1024h41l68 -104q42 58 106 91t138 33h10q86 0 156.5 -42.5t107.5 -114.5q39 73 109.5 115t156.5 42h11
q125 0 213 -88t88 -213v-743z" />
    <glyph glyph-name="n" unicode="n" horiz-adv-x="960" 
d="M827 0h-122v750q0 73 -52.5 125.5t-126.5 52.5h-82q-74 0 -126 -52t-52 -126v-750h-123v1024h41l68 -104q42 58 106 91t138 33h30q124 0 212.5 -88t88.5 -213v-743z" />
    <glyph glyph-name="o" unicode="o" 
d="M807 743v-462q0 -125 -88.5 -213t-212.5 -88h-82q-124 0 -212.5 88t-88.5 213v462q0 125 88.5 213t212.5 88h82q124 0 212.5 -88t88.5 -213zM684 274v476q0 74 -52 126t-126 52h-82q-74 0 -126 -52t-52 -126v-476q0 -74 52 -126t126 -52h82q74 0 126 52t52 126z" />
    <glyph glyph-name="p" unicode="p" horiz-adv-x="950" 
d="M827 743v-462q0 -125 -88.5 -213t-212.5 -88h-30q-68 0 -128 28t-102 78v-496h-123v1434h41l68 -104q42 58 106 91t138 33h30q124 0 212.5 -88t88.5 -213zM705 274v476q0 73 -52.5 125.5t-126.5 52.5h-82q-74 0 -126 -52t-52 -126v-476q0 -74 52 -126t126 -52h82
q74 0 126.5 52.5t52.5 125.5z" />
    <glyph glyph-name="q" unicode="q" horiz-adv-x="950" 
d="M807 -410h-123v496q-88 -106 -229 -106h-31q-124 0 -212.5 88t-88.5 213v462q0 125 88.5 213t212.5 88h31q74 0 137.5 -33t105.5 -91l68 104h41v-1434zM684 274v476q0 74 -52 126t-126 52h-82q-74 0 -126 -52t-52 -126v-476q0 -74 52 -126t126 -52h82q74 0 126 52t52 126
z" />
    <glyph glyph-name="r" unicode="r" horiz-adv-x="608" 
d="M567 907h-123q-74 0 -126 -52.5t-52 -125.5v-729h-123v1024h41l68 -104q42 58 106 91t138 33h71v-137z" />
    <glyph glyph-name="s" unicode="s" horiz-adv-x="940" 
d="M827 260q0 -121 -92 -200.5t-219 -79.5h-82q-124 0 -217.5 89t-93.5 212v41l123 20v-68q0 -73 57 -125.5t131 -52.5h82q77 0 133 43.5t56 114.5q0 47 -19 81.5t-51.5 56t-75 37.5t-89 29.5t-93 28t-89 37t-75 52t-51.5 77.5t-19 111q0 123 87 201.5t214 78.5h72
q124 0 212.5 -88t88.5 -213v-4l-123 -20v31q0 74 -52 126t-126 52h-72q-76 0 -127 -43t-51 -115q0 -50 24 -86.5t63.5 -56.5t90 -38.5t103 -32t103 -37.5t90 -54t63.5 -82.5t24 -122.5z" />
    <glyph glyph-name="t" unicode="t" horiz-adv-x="710" 
d="M608 0h-112q-110 0 -190.5 80t-80.5 190v637h-184v117h184v246l123 20v-266h260v-117h-260v-643q0 -61 43 -104t105 -43h112v-117z" />
    <glyph glyph-name="u" unicode="u" horiz-adv-x="960" 
d="M817 0h-41l-67 104q-42 -58 -106 -91t-138 -33h-31q-124 0 -212.5 88t-88.5 213v743h123v-750q0 -74 52 -126t126 -52h82q74 0 126 52t52 126v750h123v-1024z" />
    <glyph glyph-name="v" unicode="v" horiz-adv-x="827" 
d="M807 1024l-363 -1024h-61l-363 1024h123l267 -776l4 -53l4 53l266 776h123z" />
    <glyph glyph-name="w" unicode="w" horiz-adv-x="1347" 
d="M1327 1024l-342 -1024h-67l-240 772l-4 53l-4 -53l-240 -772h-68l-342 1024h125l244 -774l4 -53l4 53l240 774h74l239 -774l4 -53l4 53l244 774h125z" />
    <glyph glyph-name="x" unicode="x" horiz-adv-x="868" 
d="M786 0h-133l-219 393l-219 -393h-133l287 512l-287 512h133l219 -393l219 393h133l-286 -512z" />
    <glyph glyph-name="y" unicode="y" horiz-adv-x="806" 
d="M807 1024l-518 -1434h-119l182 498l-332 936h123l267 -776l4 -53l4 53l266 776h123z" />
    <glyph glyph-name="z" unicode="z" horiz-adv-x="847" 
d="M766 0h-684v55l516 852h-496v117h664v-55l-516 -852h516v-117z" />
    <glyph glyph-name="braceleft" unicode="{" horiz-adv-x="778" 
d="M334 -57v370q0 103 -64.5 166.5t-165.5 63.5h-22v110h33q98 5 158.5 67t60.5 163v370q0 153 100 253t252 100h10v-111h-10q-101 0 -165 -63t-64 -166v-371q0 -97 -41.5 -174.5t-114.5 -122.5q74 -48 115 -124.5t41 -172.5v-371q0 -103 64 -166t165 -63h10v-111h-10
q-152 0 -252 100t-100 253z" />
    <glyph glyph-name="bar" unicode="|" horiz-adv-x="456" 
d="M293 -410h-129v2016h129v-2016z" />
    <glyph glyph-name="braceright" unicode="}" horiz-adv-x="778" 
d="M444 313v-370q0 -153 -100 -253t-252 -100h-10v111h10q101 0 165.5 63t64.5 166v371q0 96 40.5 172.5t114.5 124.5q-73 45 -114 122.5t-41 174.5v371q0 103 -64.5 166t-165.5 63h-10v111h10q152 0 252 -100t100 -253v-370q0 -103 64.5 -166.5t165.5 -63.5h22v-110h-32
q-99 -5 -159.5 -68t-60.5 -162z" />
    <glyph glyph-name="asciitilde" unicode="~" horiz-adv-x="985" 
d="M659 604q54 0 85.5 41.5t31.5 104.5h107q0 -112 -58.5 -185t-167.5 -73q-53 0 -103.5 23t-82.5 50.5t-71.5 50.5t-73.5 23q-53 0 -85 -40.5t-32 -104.5h-107q0 111 59 184.5t167 73.5q52 0 102 -23t83 -51t73 -51t73 -23z" />
    <glyph glyph-name="uni00A0" unicode="&#xa0;" horiz-adv-x="471" 
 />
    <glyph glyph-name="exclamdown" unicode="&#xa1;" horiz-adv-x="428" 
d="M250 590l55 -1000h-182l55 1000h72zM137 1024h154v-154h-154v154z" />
    <glyph glyph-name="cent" unicode="&#xa2;" 
d="M293 -20h-109l78 251q-64 42 -101.5 109t-37.5 145v463q0 124 88.5 212.5t212.5 88.5h82q41 0 65 -8l66 213h108l-77 -252q64 -42 101.5 -109t37.5 -145v-41l-123 -20v67q0 74 -53 127l-238 -778q6 -2 31 -2h82q74 0 126 52.5t52 125.5v68l123 -21v-41q0 -125 -88.5 -213
t-212.5 -88h-82q-36 0 -66 6zM246 954v-475q0 -74 53 -127l238 776q-6 1 -12.5 2t-11 2t-7.5 1h-82q-73 0 -125.5 -52.5t-52.5 -126.5z" />
    <glyph glyph-name="sterling" unicode="&#xa3;" horiz-adv-x="1107" 
d="M123 686h180q-26 89 -39 136t-26 127t-13 153q0 146 103.5 249t249.5 103h28q146 0 249 -103t103 -249v-37l-129 -21v58q0 94 -67.5 161.5t-161.5 67.5h-16q-94 0 -162 -67.5t-68 -161.5q0 -31 2 -61t8 -63t10.5 -56.5t15 -61t15.5 -55.5t18 -61t17 -58h340v-102h-313
q29 -134 29 -232q0 -127 -76 -229h545v-123h-842v123h35q95 0 152 65t57 164q0 93 -33 232h-211v102z" />
    <glyph glyph-name="currency" unicode="&#xa4;" horiz-adv-x="1236" 
d="M125 1120l90 92l150 -151q110 84 253 84q142 0 252 -84l152 151l90 -92l-149 -149q81 -114 81 -252q0 -143 -83 -252l153 -154l-92 -90l-154 152q-109 -80 -250 -80q-142 0 -251 80l-152 -152l-92 90l153 154q-81 106 -81 252q0 143 79 250zM317 719q0 -128 87 -216.5
t214 -88.5t215.5 88.5t88.5 216.5t-88.5 217.5t-215.5 89.5t-214 -89.5t-87 -217.5z" />
    <glyph glyph-name="yen" unicode="&#xa5;" horiz-adv-x="950" 
d="M123 711h274l-356 723h139l295 -596l295 596h139l-356 -723h274v-103h-286v-133h286v-102h-286v-373h-129v373h-289v102h289v133h-289v103z" />
    <glyph glyph-name="brokenbar" unicode="&#xa6;" horiz-adv-x="456" 
d="M293 -410h-129v906h129v-906zM293 700h-129v906h129v-906z" />
    <glyph glyph-name="section" unicode="&#xa7;" horiz-adv-x="1073" 
d="M143 1075v27q0 146 103.5 249t249.5 103h92q146 0 249 -103t103 -249v-37l-129 -21v58q0 94 -67.5 161.5t-161.5 67.5h-80q-94 0 -162 -67.5t-68 -161.5v-27q0 -75 37.5 -129t97 -86.5t132 -60t145 -60t132 -75t97 -116t37.5 -173.5v-43q0 -93 -49 -174q49 -81 49 -193
v-43q0 -145 -107.5 -248.5t-254.5 -103.5h-103q-147 0 -254.5 103.5t-107.5 248.5v58l129 20v-78q0 -93 72 -161t168 -68h90q96 0 167.5 68t71.5 161v43q0 63 -23 111.5t-62.5 79.5t-90.5 56t-107 45.5t-112 42.5t-107 53t-90.5 70.5t-62.5 101.5t-23 141v26q0 100 52 185
q-52 80 -52 198zM821 332v43q0 67 -26 117.5t-67 80.5t-99 57t-112.5 45t-118 46t-107.5 59q-19 -43 -19 -88v-26q0 -62 26.5 -110.5t67.5 -78t99.5 -57t114 -47t119.5 -50t108 -63.5q14 40 14 72z" />
    <glyph glyph-name="dieresis" unicode="&#xa8;" horiz-adv-x="950" 
d="M358 1231h-153v153h153v-153zM745 1231h-153v153h153v-153z" />
    <glyph glyph-name="copyright" unicode="&#xa9;" horiz-adv-x="1679" 
d="M102 717q0 150 58.5 286.5t157 235.5t235.5 157t287 58t286.5 -58t235.5 -157t157 -235.5t58 -286.5t-58 -286.5t-157 -235.5t-235.5 -157t-286.5 -58t-287 58t-235.5 157t-157 235.5t-58.5 286.5zM217 717q0 -129 48.5 -246t131.5 -201.5t198.5 -134t244.5 -49.5
q172 0 315 84t225 229t82 318t-82 318t-225 229t-315 84q-129 0 -244.5 -49.5t-198.5 -134t-131.5 -201.5t-48.5 -246zM1100 537v-52q0 -94 -68 -161.5t-162 -67.5h-61q-94 0 -161.5 67.5t-67.5 161.5v463q0 94 67.5 162t161.5 68h61q94 0 162 -68t68 -162v-51l-115 -18v69
q0 50 -34.5 84.5t-84.5 34.5h-53q-49 0 -84 -34.5t-35 -84.5v-463q0 -49 34.5 -83.5t84.5 -34.5h53q50 0 84.5 34.5t34.5 83.5v70z" />
    <glyph glyph-name="ordfeminine" unicode="&#xaa;" horiz-adv-x="716" 
d="M573 795h-41l-36 53q-59 -66 -144 -66h-18q-79 0 -135 57.5t-56 139.5q0 79 55.5 134.5t135.5 55.5h145v86q0 39 -28 68t-68 29h-43q-40 0 -68 -29t-28 -68v-36l-94 24q0 82 55.5 140.5t134.5 58.5h43q79 0 134.5 -56.5t55.5 -134.5v-456zM479 969v123h-145
q-41 0 -68.5 -28t-27.5 -69v-26q0 -39 28 -68t68 -29h49q40 0 68 29t28 68zM143 553v78h430v-78h-430z" />
    <glyph glyph-name="guillemotleft" unicode="&#xab;" horiz-adv-x="960" 
d="M838 125l-41 -41l-377 383l377 383l41 -41l-250 -342zM500 125l-41 -41l-377 383l377 383l41 -41l-250 -342z" />
    <glyph glyph-name="logicalnot" unicode="&#xac;" horiz-adv-x="1269" 
d="M123 782h1024v-473h-129v344h-895v129z" />
    <glyph glyph-name="uni00AD" unicode="&#xad;" horiz-adv-x="0" 
 />
    <glyph glyph-name="registered" unicode="&#xae;" horiz-adv-x="1679" 
d="M102 717q0 150 58.5 286.5t157 235.5t235.5 157t287 58t286.5 -58t235.5 -157t157 -235.5t58 -286.5t-58 -286.5t-157 -235.5t-235.5 -157t-286.5 -58t-287 58t-235.5 157t-157 235.5t-58.5 286.5zM217 717q0 -129 48.5 -246t131.5 -201.5t198.5 -134t244.5 -49.5
q172 0 315 84t225 229t82 318t-82 318t-225 229t-315 84q-129 0 -244.5 -49.5t-198.5 -134t-131.5 -201.5t-48.5 -246zM1137 268h-131l-209 330h-82v-330h-115v897h291q94 0 161.5 -67.5t67.5 -161.5v-107q0 -89 -54.5 -154t-139.5 -75zM1006 829v107q0 50 -35 84.5
t-84 34.5h-172v-346h172q50 0 84.5 34.5t34.5 85.5z" />
    <glyph glyph-name="macron" unicode="&#xaf;" horiz-adv-x="1009" 
d="M246 1231v98h518v-98h-518z" />
    <glyph glyph-name="degree" unicode="&#xb0;" horiz-adv-x="856" 
d="M143 1169q0 119 83.5 202t201.5 83t201.5 -83t83.5 -202q0 -118 -83 -201t-202 -83t-202 83t-83 201zM258 1169q0 -72 49 -122t121 -50t121 50t49 122t-49 122t-121 50t-121 -50t-49 -122z" />
    <glyph glyph-name="plusminus" unicode="&#xb1;" horiz-adv-x="1351" 
d="M164 205h446v448h-446v129h446v447h129v-447h449v-129h-449v-448h449v-129h-1024v129z" />
    <glyph glyph-name="twosuperior" unicode="&#xb2;" horiz-adv-x="692" 
d="M362 1346h-22q-35 0 -59.5 -24.5t-24.5 -59.5v-48l-98 13v35q0 73 53 126.5t125 53.5h29q76 0 127 -52t51 -137q0 -108 -117 -272q-44 -60 -117 -139h240v-97h-406v78q79 64 150 142q151 167 151 288q0 45 -23.5 69t-58.5 24z" />
    <glyph glyph-name="threesuperior" unicode="&#xb3;" horiz-adv-x="671" 
d="M528 961v-46q0 -73 -52 -125.5t-126 -52.5h-28q-74 0 -126.5 52.5t-52.5 125.5v35l99 15v-50q0 -35 24 -58t60 -23h20q36 0 60 23t24 58v54q0 35 -24.5 59.5t-59.5 24.5h-63v96h63q35 0 59.5 23.5t24.5 58.5v33q0 35 -24.5 58.5t-59.5 23.5h-20q-35 0 -59.5 -23.5
t-24.5 -58.5v-50l-99 15v35q0 73 52.5 125.5t126.5 52.5h28q74 0 126 -52.5t52 -125.5v-23q0 -91 -65 -141q65 -55 65 -139z" />
    <glyph glyph-name="acute" unicode="&#xb4;" horiz-adv-x="778" 
d="M573 1434l-276 -246h-92l164 246h204z" />
    <glyph glyph-name="mu" unicode="&#xb5;" horiz-adv-x="999" 
d="M485 -20h-30q-105 0 -179 59v-334h-122v1319h122v-750q0 -73 52.5 -125.5t126.5 -52.5h82q73 0 125.5 52t52.5 126v750h123v-756q0 -62 43 -104.5t104 -42.5h14v-121h-10q-77 0 -140 36t-99 97q-45 -75 -118 -114t-147 -39z" />
    <glyph glyph-name="paragraph" unicode="&#xb6;" horiz-adv-x="1155" 
d="M686 1311v-1721h-129v1043h-102q-146 0 -249.5 103t-103.5 249v96q0 146 103.5 249.5t249.5 103.5h536v-1844h-129v1721h-176z" />
    <glyph glyph-name="periodcentered" unicode="&#xb7;" horiz-adv-x="440" 
d="M297 655h-154v154h154v-154z" />
    <glyph glyph-name="cedilla" unicode="&#xb8;" horiz-adv-x="741" 
d="M324 -150l92 150h86l-60 -102q13 -6 26 -15.5t30.5 -26.5t28 -44t10.5 -58q0 -76 -52 -121t-133 -45q-83 0 -147 64l47 72q40 -46 102 -46q38 0 63 21.5t25 58.5q0 46 -34.5 71.5t-83.5 20.5z" />
    <glyph glyph-name="onesuperior" unicode="&#xb9;" horiz-adv-x="694" 
d="M551 745h-408v97h156v485l-156 -65v100l174 72h80v-592h154v-97z" />
    <glyph glyph-name="ordmasculine" unicode="&#xba;" horiz-adv-x="716" 
d="M573 1251v-278q0 -78 -55.5 -134.5t-134.5 -56.5h-49q-79 0 -135 56.5t-56 134.5v278q0 78 56 134.5t135 56.5h49q79 0 134.5 -56.5t55.5 -134.5zM479 969v286q0 39 -28 68t-68 29h-49q-40 0 -68 -29t-28 -68v-286q0 -39 28 -68t68 -29h49q40 0 68 29t28 68zM143 553v78
h430v-78h-430z" />
    <glyph glyph-name="guillemotright" unicode="&#xbb;" horiz-adv-x="960" 
d="M164 84l-41 41l250 342l-250 342l41 41l377 -383zM502 84l-41 41l250 342l-250 342l41 41l377 -383z" />
    <glyph glyph-name="onequarter" unicode="&#xbc;" horiz-adv-x="1363" 
d="M1221 119h-56v-119h-90v119h-260v47l293 520h57v-479h56v-88zM1075 207v242l-133 -242h133zM401 0h-114l817 1434h115zM551 745h-408v97h156v485l-156 -65v100l174 72h80v-592h154v-97z" />
    <glyph glyph-name="onehalf" unicode="&#xbd;" horiz-adv-x="1447" 
d="M551 745h-408v97h156v485l-156 -65v100l174 72h80v-592h154v-97zM1118 600h-22q-35 0 -59.5 -24.5t-24.5 -59.5v-47l-99 12v35q0 73 53.5 126.5t125.5 53.5h28q77 0 127.5 -51.5t50.5 -136.5q0 -109 -116 -272q-48 -65 -117 -140h240v-96h-406v78q83 68 150 141
q151 167 151 289q0 45 -23.5 68.5t-58.5 23.5zM401 0h-114l817 1434h115z" />
    <glyph glyph-name="threequarters" unicode="&#xbe;" horiz-adv-x="1363" 
d="M528 961v-46q0 -73 -52 -125.5t-126 -52.5h-28q-74 0 -126.5 52.5t-52.5 125.5v35l99 15v-50q0 -35 24 -58t60 -23h20q36 0 60 23t24 58v54q0 35 -24.5 59.5t-59.5 24.5h-63v96h63q35 0 59.5 23.5t24.5 58.5v33q0 35 -24.5 58.5t-59.5 23.5h-20q-35 0 -59.5 -23.5
t-24.5 -58.5v-50l-99 15v35q0 73 52.5 125.5t126.5 52.5h28q74 0 126 -52.5t52 -125.5v-23q0 -91 -65 -141q65 -55 65 -139zM1221 119h-56v-119h-90v119h-260v47l293 520h57v-479h56v-88zM1075 207v242l-133 -242h133zM401 0h-114l817 1434h115z" />
    <glyph glyph-name="questiondown" unicode="&#xbf;" horiz-adv-x="950" 
d="M465 1024h153v-154h-153v154zM477 551v39h129v-39q0 -71 -20.5 -127.5t-54 -94t-73.5 -69.5t-79.5 -62.5t-73 -64t-54 -82.5t-20.5 -110v-19q0 -94 68 -161.5t162 -67.5h28q94 0 162 67.5t68 161.5v58l129 -21v-37q0 -146 -103 -249t-249 -103h-41q-146 0 -249.5 103
t-103.5 249v19q0 75 20.5 135.5t54 100.5t73.5 73.5t79.5 63.5t73 62t54 76.5t20.5 98.5z" />
    <glyph glyph-name="Agrave" unicode="&#xc0;" horiz-adv-x="950" 
d="M797 0l-95 334h-454l-94 -334h-134l420 1434h68l422 -1434h-133zM471 1118l-188 -661h385l-189 661l-4 53zM526 1597l-276 246h205l163 -246h-92z" />
    <glyph glyph-name="Aacute" unicode="&#xc1;" horiz-adv-x="950" 
d="M797 0l-95 334h-454l-94 -334h-134l420 1434h68l422 -1434h-133zM471 1118l-188 -661h385l-189 661l-4 53zM700 1843l-276 -246h-92l164 246h204z" />
    <glyph glyph-name="Acircumflex" unicode="&#xc2;" horiz-adv-x="950" 
d="M797 0l-95 334h-454l-94 -334h-134l420 1434h68l422 -1434h-133zM471 1118l-188 -661h385l-189 661l-4 53zM537 1843l204 -246h-123l-143 164l-143 -164h-123l205 246h123z" />
    <glyph glyph-name="Atilde" unicode="&#xc3;" horiz-adv-x="950" 
d="M797 0l-95 334h-454l-94 -334h-134l420 1434h68l422 -1434h-133zM471 1118l-188 -661h385l-189 661l-4 53zM612 1729q41 0 63.5 31t22.5 83h95q0 -95 -47 -155t-136 -60q-42 0 -83.5 18t-69 39.5t-60 39.5t-59.5 18q-40 0 -62 -31t-22 -82h-94q0 95 46.5 154t135.5 59
q40 0 79 -18t65.5 -39t60.5 -39t65 -18z" />
    <glyph glyph-name="Adieresis" unicode="&#xc4;" horiz-adv-x="950" 
d="M797 0l-95 334h-454l-94 -334h-134l420 1434h68l422 -1434h-133zM471 1118l-188 -661h385l-189 661l-4 53zM358 1640h-153v154h153v-154zM745 1640h-153v154h153v-154z" />
    <glyph glyph-name="Aring" unicode="&#xc5;" horiz-adv-x="950" 
d="M264 1546q0 88 61.5 150.5t149.5 62.5t150.5 -62.5t62.5 -150.5q0 -71 -43 -127.5t-110 -75.5l395 -1343h-133l-95 334h-454l-94 -334h-134l394 1343q-67 20 -108.5 76t-41.5 127zM471 1118l-188 -661h385l-189 661l-4 53zM367 1546q0 -44 32 -77t76 -33q47 0 79 32.5
t32 77.5q0 47 -32 80t-79 33q-44 0 -76 -33t-32 -80z" />
    <glyph glyph-name="AE" unicode="&#xc6;" horiz-adv-x="1767" 
d="M1686 0h-807v334h-527l-198 -334h-134l859 1434h807v-123h-678v-533h548v-123h-548v-532h678v-123zM426 457h453v772l-21 -53z" />
    <glyph glyph-name="Ccedilla" unicode="&#xc7;" horiz-adv-x="1073" 
d="M428 -150l80 130h-12q-146 0 -249.5 103t-103.5 249v770q0 146 103.5 249t249.5 103h102q146 0 249 -103t103 -249v-58l-129 -20v78q0 94 -67.5 161.5t-161.5 67.5h-90q-94 0 -162 -67.5t-68 -161.5v-770q0 -94 68 -162t162 -68h90q94 0 161.5 68t67.5 162v78l129 -21
v-57q0 -146 -103 -249t-249 -103h-4l-47 -82q19 -9 36.5 -22.5t37.5 -47t20 -74.5q0 -77 -51.5 -121.5t-132.5 -44.5q-84 0 -148 64l47 72q14 -17 41.5 -31.5t61.5 -14.5q38 0 63 21.5t25 58.5q0 46 -35 71.5t-84 20.5z" />
    <glyph glyph-name="Egrave" unicode="&#xc8;" horiz-adv-x="1052" 
d="M971 0h-807v1434h807v-123h-678v-533h549v-123h-549v-532h678v-123zM578 1597l-277 246h205l164 -246h-92z" />
    <glyph glyph-name="Eacute" unicode="&#xc9;" horiz-adv-x="1052" 
d="M971 0h-807v1434h807v-123h-678v-533h549v-123h-549v-532h678v-123zM793 1843l-277 -246h-92l164 246h205z" />
    <glyph glyph-name="Ecircumflex" unicode="&#xca;" horiz-adv-x="1052" 
d="M971 0h-807v1434h807v-123h-678v-533h549v-123h-549v-532h678v-123zM629 1843l205 -246h-123l-144 164l-143 -164h-123l205 246h123z" />
    <glyph glyph-name="Edieresis" unicode="&#xcb;" horiz-adv-x="1052" 
d="M971 0h-807v1434h807v-123h-678v-533h549v-123h-549v-532h678v-123zM410 1640h-154v154h154v-154zM797 1640h-154v154h154v-154z" />
    <glyph glyph-name="Igrave" unicode="&#xcc;" horiz-adv-x="456" 
d="M293 0h-129v1434h129v-1434zM281 1597l-277 246h205l164 -246h-92z" />
    <glyph glyph-name="Iacute" unicode="&#xcd;" horiz-adv-x="456" 
d="M293 0h-129v1434h129v-1434zM455 1843l-277 -246h-92l164 246h205z" />
    <glyph glyph-name="Icircumflex" unicode="&#xce;" horiz-adv-x="456" 
d="M293 0h-129v1434h129v-1434zM291 1843l205 -246h-123l-144 164l-143 -164h-123l205 246h123z" />
    <glyph glyph-name="Idieresis" unicode="&#xcf;" horiz-adv-x="456" 
d="M293 0h-129v1434h129v-1434zM113 1640h-154v154h154v-154zM500 1640h-154v154h154v-154z" />
    <glyph glyph-name="Eth" unicode="&#xd0;" horiz-adv-x="1138" 
d="M61 686h127v748h455q146 0 249 -103.5t103 -249.5v-729q0 -146 -103 -249t-249 -103h-455v584h-127v102zM866 352v729q0 94 -67.5 162t-161.5 68h-320v-625h240v-102h-240v-461h320q94 0 161.5 67.5t67.5 161.5z" />
    <glyph glyph-name="Ntilde" unicode="&#xd1;" horiz-adv-x="1134" 
d="M971 0h-68l-598 1044l-12 62v-1106h-129v1434h67l598 -1045l13 -61v1106h129v-1434zM702 1729q41 0 63.5 31t22.5 83h95q0 -95 -47 -155t-136 -60q-42 0 -83.5 18t-69 39.5t-60 39.5t-59.5 18q-40 0 -62 -31t-22 -82h-94q0 95 46.5 154t135.5 59q40 0 79 -18t65.5 -39
t60.5 -39t65 -18z" />
    <glyph glyph-name="Ograve" unicode="&#xd2;" horiz-adv-x="1093" 
d="M950 1102v-770q0 -146 -103 -249t-249 -103h-102q-146 0 -249.5 103t-103.5 249v770q0 146 103.5 249t249.5 103h102q146 0 249 -103t103 -249zM821 332v770q0 94 -67.5 161.5t-161.5 67.5h-90q-94 0 -162 -67.5t-68 -161.5v-770q0 -94 68 -162t162 -68h90q94 0 161.5 68
t67.5 162zM618 1597l-276 246h205l164 -246h-93z" />
    <glyph glyph-name="Oacute" unicode="&#xd3;" horiz-adv-x="1093" 
d="M950 1102v-770q0 -146 -103 -249t-249 -103h-102q-146 0 -249.5 103t-103.5 249v770q0 146 103.5 249t249.5 103h102q146 0 249 -103t103 -249zM821 332v770q0 94 -67.5 161.5t-161.5 67.5h-90q-94 0 -162 -67.5t-68 -161.5v-770q0 -94 68 -162t162 -68h90q94 0 161.5 68
t67.5 162zM793 1843l-277 -246h-92l164 246h205z" />
    <glyph glyph-name="Ocircumflex" unicode="&#xd4;" horiz-adv-x="1093" 
d="M950 1102v-770q0 -146 -103 -249t-249 -103h-102q-146 0 -249.5 103t-103.5 249v770q0 146 103.5 249t249.5 103h102q146 0 249 -103t103 -249zM821 332v770q0 94 -67.5 161.5t-161.5 67.5h-90q-94 0 -162 -67.5t-68 -161.5v-770q0 -94 68 -162t162 -68h90q94 0 161.5 68
t67.5 162zM608 1843l205 -246h-123l-143 164l-144 -164h-122l204 246h123z" />
    <glyph glyph-name="Otilde" unicode="&#xd5;" horiz-adv-x="1093" 
d="M950 1102v-770q0 -146 -103 -249t-249 -103h-102q-146 0 -249.5 103t-103.5 249v770q0 146 103.5 249t249.5 103h102q146 0 249 -103t103 -249zM821 332v770q0 94 -67.5 161.5t-161.5 67.5h-90q-94 0 -162 -67.5t-68 -161.5v-770q0 -94 68 -162t162 -68h90q94 0 161.5 68
t67.5 162zM682 1729q41 0 63.5 31t22.5 83h94q0 -95 -46.5 -155t-135.5 -60q-42 0 -83.5 18t-69 39.5t-60 39.5t-59.5 18q-40 0 -62 -31t-22 -82h-95q0 95 47 154t136 59q40 0 79 -18t65.5 -39t60.5 -39t65 -18z" />
    <glyph glyph-name="Odieresis" unicode="&#xd6;" horiz-adv-x="1093" 
d="M950 1102v-770q0 -146 -103 -249t-249 -103h-102q-146 0 -249.5 103t-103.5 249v770q0 146 103.5 249t249.5 103h102q146 0 249 -103t103 -249zM821 332v770q0 94 -67.5 161.5t-161.5 67.5h-90q-94 0 -162 -67.5t-68 -161.5v-770q0 -94 68 -162t162 -68h90q94 0 161.5 68
t67.5 162zM430 1640h-154v154h154v-154zM817 1640h-153v154h153v-154z" />
    <glyph glyph-name="multiply" unicode="&#xd7;" horiz-adv-x="1196" 
d="M104 1120l91 92l403 -403l403 403l91 -92l-402 -401l404 -406l-93 -90l-403 404l-403 -404l-93 90l404 406z" />
    <glyph glyph-name="Oslash" unicode="&#xd8;" horiz-adv-x="1093" 
d="M211 -61h-109l99 198q-58 85 -58 195v770q0 146 103.5 249t249.5 103h102q127 0 223 -80l62 121h108l-100 -201q59 -83 59 -192v-770q0 -146 -103 -249t-249 -103h-102q-132 0 -226 79zM821 332v770q0 17 -4 45l-487 -969q70 -76 172 -76h90q94 0 161.5 68t67.5 162z
M272 1102v-770q0 -36 4 -45l486 968q-66 76 -170 76h-90q-94 0 -162 -67.5t-68 -161.5z" />
    <glyph glyph-name="Ugrave" unicode="&#xd9;" horiz-adv-x="1093" 
d="M950 1434v-1102q0 -146 -103 -249t-249 -103h-102q-146 0 -249.5 103t-103.5 249v1102h129v-1102q0 -94 68 -162t162 -68h90q94 0 161.5 68t67.5 162v1102h129zM578 1597l-277 246h205l164 -246h-92z" />
    <glyph glyph-name="Uacute" unicode="&#xda;" horiz-adv-x="1093" 
d="M950 1434v-1102q0 -146 -103 -249t-249 -103h-102q-146 0 -249.5 103t-103.5 249v1102h129v-1102q0 -94 68 -162t162 -68h90q94 0 161.5 68t67.5 162v1102h129zM793 1843l-277 -246h-92l164 246h205z" />
    <glyph glyph-name="Ucircumflex" unicode="&#xdb;" horiz-adv-x="1093" 
d="M950 1434v-1102q0 -146 -103 -249t-249 -103h-102q-146 0 -249.5 103t-103.5 249v1102h129v-1102q0 -94 68 -162t162 -68h90q94 0 161.5 68t67.5 162v1102h129zM608 1843l205 -246h-123l-143 164l-144 -164h-122l204 246h123z" />
    <glyph glyph-name="Udieresis" unicode="&#xdc;" horiz-adv-x="1093" 
d="M950 1434v-1102q0 -146 -103 -249t-249 -103h-102q-146 0 -249.5 103t-103.5 249v1102h129v-1102q0 -94 68 -162t162 -68h90q94 0 161.5 68t67.5 162v1102h129zM430 1640h-154v154h154v-154zM817 1640h-153v154h153v-154z" />
    <glyph glyph-name="Yacute" unicode="&#xdd;" horiz-adv-x="950" 
d="M909 1434l-368 -748v-686h-129v684l-371 750h139l295 -596l295 596h139zM741 1843l-276 -246h-92l164 246h204z" />
    <glyph glyph-name="Thorn" unicode="&#xde;" horiz-adv-x="1052" 
d="M971 799v-117q0 -146 -103.5 -249t-249.5 -103h-325v-330h-129v1434h129v-283h325q146 0 249.5 -103t103.5 -249zM842 682v117q0 94 -68 161.5t-162 67.5h-319v-575h319q94 0 162 67.5t68 161.5z" />
    <glyph glyph-name="germandbls" unicode="&#xdf;" horiz-adv-x="1052" 
d="M471 0v117h111q94 0 161.5 67.5t67.5 161.5v131q0 94 -67.5 162t-161.5 68h-111v116h111q94 0 161.5 68t67.5 162v55q0 94 -67.5 161.5t-161.5 67.5h-60q-94 0 -161.5 -67.5t-67.5 -161.5v-1108h-123v1102q0 147 100 249.5t246 102.5h66q146 0 249 -103t103 -249v-25
q0 -101 -50 -183.5t-136 -127.5q86 -45 136 -127.5t50 -183.5v-103q0 -146 -103 -249t-249 -103h-111z" />
    <glyph glyph-name="agrave" unicode="&#xe0;" 
d="M807 0h-41l-68 102q-42 -57 -105.5 -89.5t-137.5 -32.5h-31q-124 0 -212.5 88t-88.5 213v10q0 125 88.5 213t212.5 88h260v158q0 74 -52 126t-126 52h-72q-74 0 -126 -52t-52 -126v-37l-123 20v10q0 125 88.5 213t212.5 88h72q124 0 212.5 -88t88.5 -213v-743zM684 274
v222h-260q-73 0 -125.5 -52.5t-52.5 -126.5v-43q0 -74 52 -126t126 -52h82q74 0 126 52t52 126zM516 1188l-276 246h204l164 -246h-92z" />
    <glyph glyph-name="aacute" unicode="&#xe1;" 
d="M807 0h-41l-68 102q-42 -57 -105.5 -89.5t-137.5 -32.5h-31q-124 0 -212.5 88t-88.5 213v10q0 125 88.5 213t212.5 88h260v158q0 74 -52 126t-126 52h-72q-74 0 -126 -52t-52 -126v-37l-123 20v10q0 125 88.5 213t212.5 88h72q124 0 212.5 -88t88.5 -213v-743zM684 274
v222h-260q-73 0 -125.5 -52.5t-52.5 -126.5v-43q0 -74 52 -126t126 -52h82q74 0 126 52t52 126zM690 1434l-276 -246h-92l163 246h205z" />
    <glyph glyph-name="acircumflex" unicode="&#xe2;" 
d="M807 0h-41l-68 102q-42 -57 -105.5 -89.5t-137.5 -32.5h-31q-124 0 -212.5 88t-88.5 213v10q0 125 88.5 213t212.5 88h260v158q0 74 -52 126t-126 52h-72q-74 0 -126 -52t-52 -126v-37l-123 20v10q0 125 88.5 213t212.5 88h72q124 0 212.5 -88t88.5 -213v-743zM684 274
v222h-260q-73 0 -125.5 -52.5t-52.5 -126.5v-43q0 -74 52 -126t126 -52h82q74 0 126 52t52 126zM547 1434l205 -246h-123l-144 164l-143 -164h-123l205 246h123z" />
    <glyph glyph-name="atilde" unicode="&#xe3;" 
d="M807 0h-41l-68 102q-42 -57 -105.5 -89.5t-137.5 -32.5h-31q-124 0 -212.5 88t-88.5 213v10q0 125 88.5 213t212.5 88h260v158q0 74 -52 126t-126 52h-72q-74 0 -126 -52t-52 -126v-37l-123 20v10q0 125 88.5 213t212.5 88h72q124 0 212.5 -88t88.5 -213v-743zM684 274
v222h-260q-73 0 -125.5 -52.5t-52.5 -126.5v-43q0 -74 52 -126t126 -52h82q74 0 126 52t52 126zM602 1319q41 0 63.5 31.5t22.5 83.5h94q0 -95 -46.5 -155t-135.5 -60q-42 0 -83.5 18t-69 39t-60 39t-59.5 18q-40 0 -62 -30.5t-22 -81.5h-94q0 95 46.5 154t135.5 59
q40 0 79 -18t65.5 -39.5t60.5 -39.5t65 -18z" />
    <glyph glyph-name="adieresis" unicode="&#xe4;" 
d="M807 0h-41l-68 102q-42 -57 -105.5 -89.5t-137.5 -32.5h-31q-124 0 -212.5 88t-88.5 213v10q0 125 88.5 213t212.5 88h260v158q0 74 -52 126t-126 52h-72q-74 0 -126 -52t-52 -126v-37l-123 20v10q0 125 88.5 213t212.5 88h72q124 0 212.5 -88t88.5 -213v-743zM684 274
v222h-260q-73 0 -125.5 -52.5t-52.5 -126.5v-43q0 -74 52 -126t126 -52h82q74 0 126 52t52 126zM369 1231h-154v153h154v-153zM756 1231h-154v153h154v-153z" />
    <glyph glyph-name="aring" unicode="&#xe5;" 
d="M807 0h-41l-68 102q-42 -57 -105.5 -89.5t-137.5 -32.5h-31q-124 0 -212.5 88t-88.5 213v10q0 125 88.5 213t212.5 88h260v158q0 74 -52 126t-126 52h-72q-74 0 -126 -52t-52 -126v-37l-123 20v10q0 125 88.5 213t212.5 88h72q124 0 212.5 -88t88.5 -213v-743zM684 274
v222h-260q-73 0 -125.5 -52.5t-52.5 -126.5v-43q0 -74 52 -126t126 -52h82q74 0 126 52t52 126zM258 1358q0 88 61.5 150.5t149.5 62.5t150.5 -62.5t62.5 -150.5t-62.5 -149.5t-150.5 -61.5t-149.5 61.5t-61.5 149.5zM360 1358q0 -44 32.5 -77.5t76.5 -33.5q47 0 79 33
t32 78q0 47 -32 79.5t-79 32.5q-45 0 -77 -32.5t-32 -79.5z" />
    <glyph glyph-name="ae" unicode="&#xe6;" horiz-adv-x="1490" 
d="M1368 322v-41q0 -125 -88 -213t-213 -88h-82q-85 0 -155 41.5t-109 111.5q-94 -153 -266 -153h-31q-124 0 -212.5 88t-88.5 213v10q0 125 88.5 213t212.5 88h260v164q-5 70 -56 121t-122 51h-72q-74 0 -126 -52t-52 -126v-37l-123 20v10q0 125 88.5 213t212.5 88h72
q71 0 134 -32t105 -88q42 56 104.5 88t135.5 32h82q125 0 213 -88t88 -213v-241h-561v-228q0 -74 52.5 -126t125.5 -52h82q73 0 125.5 52t52.5 126v68zM684 274v222h-260q-73 0 -125.5 -52.5t-52.5 -126.5v-43q0 -74 52 -126t126 -52h82q74 0 126 52t52 126zM1245 598v152
q0 74 -52.5 126t-125.5 52h-82q-72 0 -125 -51t-53 -121v-158h438z" />
    <glyph glyph-name="ccedilla" unicode="&#xe7;" 
d="M356 -150l80 130h-12q-124 0 -212.5 88t-88.5 213v462q0 125 88.5 213t212.5 88h82q124 0 212.5 -88t88.5 -213v-41l-123 -20v68q0 74 -52 126t-126 52h-82q-74 0 -126 -52t-52 -126v-476q0 -74 52 -126t126 -52h82q74 0 126 52t52 126v68l123 -20v-41q0 -119 -83 -206
t-202 -95l-47 -82q19 -9 36.5 -22.5t37.5 -47t20 -74.5q0 -77 -51.5 -121.5t-132.5 -44.5q-83 0 -147 64l47 72q40 -46 102 -46q38 0 63 21.5t25 58.5q0 46 -35 71.5t-84 20.5z" />
    <glyph glyph-name="egrave" unicode="&#xe8;" 
d="M807 322v-41q0 -125 -88.5 -213t-212.5 -88h-82q-124 0 -212.5 88t-88.5 213v462q0 125 88.5 213t212.5 88h82q124 0 212.5 -88t88.5 -213v-241h-561v-228q0 -74 52 -126t126 -52h82q74 0 126 52t52 126v68zM684 598v152q0 74 -52 126t-126 52h-82q-74 0 -126 -52
t-52 -126v-152h438zM516 1188l-276 246h204l164 -246h-92z" />
    <glyph glyph-name="eacute" unicode="&#xe9;" 
d="M807 322v-41q0 -125 -88.5 -213t-212.5 -88h-82q-124 0 -212.5 88t-88.5 213v462q0 125 88.5 213t212.5 88h82q124 0 212.5 -88t88.5 -213v-241h-561v-228q0 -74 52 -126t126 -52h82q74 0 126 52t52 126v68zM684 598v152q0 74 -52 126t-126 52h-82q-74 0 -126 -52
t-52 -126v-152h438zM690 1434l-276 -246h-92l163 246h205z" />
    <glyph glyph-name="ecircumflex" unicode="&#xea;" 
d="M807 322v-41q0 -125 -88.5 -213t-212.5 -88h-82q-124 0 -212.5 88t-88.5 213v462q0 125 88.5 213t212.5 88h82q124 0 212.5 -88t88.5 -213v-241h-561v-228q0 -74 52 -126t126 -52h82q74 0 126 52t52 126v68zM684 598v152q0 74 -52 126t-126 52h-82q-74 0 -126 -52
t-52 -126v-152h438zM547 1434l205 -246h-123l-144 164l-143 -164h-123l205 246h123z" />
    <glyph glyph-name="edieresis" unicode="&#xeb;" 
d="M807 322v-41q0 -125 -88.5 -213t-212.5 -88h-82q-124 0 -212.5 88t-88.5 213v462q0 125 88.5 213t212.5 88h82q124 0 212.5 -88t88.5 -213v-241h-561v-228q0 -74 52 -126t126 -52h82q74 0 126 52t52 126v68zM684 598v152q0 74 -52 126t-126 52h-82q-74 0 -126 -52
t-52 -126v-152h438zM369 1231h-154v153h154v-153zM756 1231h-154v153h154v-153z" />
    <glyph glyph-name="igrave" unicode="&#xec;" horiz-adv-x="450" 
d="M287 0h-123v1024h123v-1024zM276 1188l-276 246h205l164 -246h-93z" />
    <glyph glyph-name="iacute" unicode="&#xed;" horiz-adv-x="450" 
d="M287 0h-123v1024h123v-1024zM451 1434l-277 -246h-92l164 246h205z" />
    <glyph glyph-name="icircumflex" unicode="&#xee;" horiz-adv-x="450" 
d="M287 0h-123v1024h123v-1024zM287 1434l205 -246h-123l-144 164l-143 -164h-123l205 246h123z" />
    <glyph glyph-name="idieresis" unicode="&#xef;" horiz-adv-x="450" 
d="M287 0h-123v1024h123v-1024zM109 1231h-154v153h154v-153zM496 1231h-154v153h154v-153z" />
    <glyph glyph-name="eth" unicode="&#xf0;" 
d="M297 1206l201 58q-73 87 -189 170h148q79 -54 151 -138l219 64l21 -66l-197 -57q156 -226 156 -494v-462q0 -125 -88.5 -213t-212.5 -88h-82q-124 0 -212.5 88t-88.5 213v462q0 125 88.5 213t212.5 88h82q63 0 127 -28q-28 102 -90 190l-228 -65zM684 274v476
q0 74 -52 126t-126 52h-82q-74 0 -126 -52t-52 -126v-476q0 -74 52 -126t126 -52h82q74 0 126 52t52 126z" />
    <glyph glyph-name="ntilde" unicode="&#xf1;" 
d="M807 0h-123v750q0 74 -52 126t-126 52h-82q-74 0 -126 -52t-52 -126v-750h-123v1024h41l67 -104q42 58 106 91t138 33h31q124 0 212.5 -88t88.5 -213v-743zM602 1319q41 0 63.5 31.5t22.5 83.5h94q0 -95 -46.5 -155t-135.5 -60q-42 0 -83.5 18t-69 39t-60 39t-59.5 18
q-40 0 -62 -30.5t-22 -81.5h-94q0 95 46.5 154t135.5 59q40 0 79 -18t65.5 -39.5t60.5 -39.5t65 -18z" />
    <glyph glyph-name="ograve" unicode="&#xf2;" 
d="M807 743v-462q0 -125 -88.5 -213t-212.5 -88h-82q-124 0 -212.5 88t-88.5 213v462q0 125 88.5 213t212.5 88h82q124 0 212.5 -88t88.5 -213zM684 274v476q0 74 -52 126t-126 52h-82q-74 0 -126 -52t-52 -126v-476q0 -74 52 -126t126 -52h82q74 0 126 52t52 126zM516 1188
l-276 246h204l164 -246h-92z" />
    <glyph glyph-name="oacute" unicode="&#xf3;" 
d="M807 743v-462q0 -125 -88.5 -213t-212.5 -88h-82q-124 0 -212.5 88t-88.5 213v462q0 125 88.5 213t212.5 88h82q124 0 212.5 -88t88.5 -213zM684 274v476q0 74 -52 126t-126 52h-82q-74 0 -126 -52t-52 -126v-476q0 -74 52 -126t126 -52h82q74 0 126 52t52 126zM690 1434
l-276 -246h-92l163 246h205z" />
    <glyph glyph-name="ocircumflex" unicode="&#xf4;" 
d="M807 743v-462q0 -125 -88.5 -213t-212.5 -88h-82q-124 0 -212.5 88t-88.5 213v462q0 125 88.5 213t212.5 88h82q124 0 212.5 -88t88.5 -213zM684 274v476q0 74 -52 126t-126 52h-82q-74 0 -126 -52t-52 -126v-476q0 -74 52 -126t126 -52h82q74 0 126 52t52 126zM526 1434
l205 -246h-123l-143 164l-143 -164h-123l204 246h123z" />
    <glyph glyph-name="otilde" unicode="&#xf5;" 
d="M807 743v-462q0 -125 -88.5 -213t-212.5 -88h-82q-124 0 -212.5 88t-88.5 213v462q0 125 88.5 213t212.5 88h82q124 0 212.5 -88t88.5 -213zM684 274v476q0 74 -52 126t-126 52h-82q-74 0 -126 -52t-52 -126v-476q0 -74 52 -126t126 -52h82q74 0 126 52t52 126zM602 1319
q41 0 63.5 31.5t22.5 83.5h94q0 -95 -46.5 -155t-135.5 -60q-42 0 -83.5 18t-69 39t-60 39t-59.5 18q-40 0 -62 -30.5t-22 -81.5h-94q0 95 46.5 154t135.5 59q40 0 79 -18t65.5 -39.5t60.5 -39.5t65 -18z" />
    <glyph glyph-name="odieresis" unicode="&#xf6;" 
d="M807 743v-462q0 -125 -88.5 -213t-212.5 -88h-82q-124 0 -212.5 88t-88.5 213v462q0 125 88.5 213t212.5 88h82q124 0 212.5 -88t88.5 -213zM684 274v476q0 74 -52 126t-126 52h-82q-74 0 -126 -52t-52 -126v-476q0 -74 52 -126t126 -52h82q74 0 126 52t52 126zM348 1231
h-153v153h153v-153zM735 1231h-153v153h153v-153z" />
    <glyph glyph-name="divide" unicode="&#xf7;" horiz-adv-x="1187" 
d="M82 782h1024v-129h-1024v129zM455 1100q0 57 41 98t98 41t98 -41t41 -98t-41 -98t-98 -41t-98 41t-41 98zM455 336q0 57 41 98t98 41t98 -41t41 -98t-41 -98t-98 -41t-98 41t-41 98z" />
    <glyph glyph-name="oslash" unicode="&#xf8;" horiz-adv-x="931" 
d="M170 -61h-109l109 178q-47 71 -47 164v462q0 125 88.5 213t212.5 88h82q105 0 188 -67l68 108h108l-110 -180q47 -71 47 -162v-462q0 -125 -88.5 -213t-212.5 -88h-82q-107 0 -188 65zM246 750v-476q0 -24 2 -30l385 630q-54 54 -127 54h-82q-74 0 -126 -52t-52 -126z
M684 274v476q0 4 -1 13t-1 13l-385 -629q51 -51 127 -51h82q74 0 126 52t52 126z" />
    <glyph glyph-name="ugrave" unicode="&#xf9;" 
d="M807 0h-41l-68 104q-42 -58 -105.5 -91t-137.5 -33h-31q-124 0 -212.5 88t-88.5 213v743h123v-750q0 -74 52 -126t126 -52h82q74 0 126 52t52 126v750h123v-1024zM475 1188l-276 246h204l164 -246h-92z" />
    <glyph glyph-name="uacute" unicode="&#xfa;" 
d="M807 0h-41l-68 104q-42 -58 -105.5 -91t-137.5 -33h-31q-124 0 -212.5 88t-88.5 213v743h123v-750q0 -74 52 -126t126 -52h82q74 0 126 52t52 126v750h123v-1024zM731 1434l-276 -246h-93l164 246h205z" />
    <glyph glyph-name="ucircumflex" unicode="&#xfb;" 
d="M807 0h-41l-68 104q-42 -58 -105.5 -91t-137.5 -33h-31q-124 0 -212.5 88t-88.5 213v743h123v-750q0 -74 52 -126t126 -52h82q74 0 126 52t52 126v750h123v-1024zM526 1434l205 -246h-123l-143 164l-143 -164h-123l204 246h123z" />
    <glyph glyph-name="udieresis" unicode="&#xfc;" 
d="M807 0h-41l-68 104q-42 -58 -105.5 -91t-137.5 -33h-31q-124 0 -212.5 88t-88.5 213v743h123v-750q0 -74 52 -126t126 -52h82q74 0 126 52t52 126v750h123v-1024zM348 1231h-153v153h153v-153zM735 1231h-153v153h153v-153z" />
    <glyph glyph-name="yacute" unicode="&#xfd;" horiz-adv-x="806" 
d="M807 1024l-518 -1434h-119l182 498l-332 936h123l267 -776l4 -53l4 53l266 776h123zM670 1434l-277 -246h-92l164 246h205z" />
    <glyph glyph-name="thorn" unicode="&#xfe;" horiz-adv-x="950" 
d="M827 743v-462q0 -125 -88.5 -213t-212.5 -88h-30q-68 0 -128 28t-102 78v-496h-123v1844h123v-496q42 50 102 78t128 28h30q124 0 212.5 -88t88.5 -213zM705 274v476q0 73 -52.5 125.5t-126.5 52.5h-82q-74 0 -126 -52t-52 -126v-476q0 -74 52 -126t126 -52h82
q74 0 126.5 52.5t52.5 125.5z" />
    <glyph glyph-name="ydieresis" unicode="&#xff;" horiz-adv-x="806" 
d="M807 1024l-518 -1434h-119l182 498l-332 936h123l267 -776l4 -53l4 53l266 776h123zM307 1231h-153v153h153v-153zM694 1231h-153v153h153v-153z" />
    <glyph glyph-name="Amacron" unicode="&#x100;" horiz-adv-x="950" 
d="M797 0l-95 334h-454l-94 -334h-134l420 1434h68l422 -1434h-133zM471 1118l-188 -661h385l-189 661l-4 53zM217 1640v99h518v-99h-518z" />
    <glyph glyph-name="amacron" unicode="&#x101;" 
d="M807 0h-41l-68 102q-42 -57 -105.5 -89.5t-137.5 -32.5h-31q-124 0 -212.5 88t-88.5 213v10q0 125 88.5 213t212.5 88h260v158q0 74 -52 126t-126 52h-72q-74 0 -126 -52t-52 -126v-37l-123 20v10q0 125 88.5 213t212.5 88h72q124 0 212.5 -88t88.5 -213v-743zM684 274
v222h-260q-73 0 -125.5 -52.5t-52.5 -126.5v-43q0 -74 52 -126t126 -52h82q74 0 126 52t52 126zM227 1231v98h518v-98h-518z" />
    <glyph glyph-name="Abreve" unicode="&#x102;" horiz-adv-x="950" 
d="M797 0l-95 334h-454l-94 -334h-134l420 1434h68l422 -1434h-133zM471 1118l-188 -661h385l-189 661l-4 53zM205 1829h94q0 -66 49.5 -101.5t126.5 -35.5q78 0 128 35.5t50 101.5h95q0 -111 -77 -171.5t-196 -60.5q-120 0 -195 60t-75 172z" />
    <glyph glyph-name="abreve" unicode="&#x103;" 
d="M807 0h-41l-68 102q-42 -57 -105.5 -89.5t-137.5 -32.5h-31q-124 0 -212.5 88t-88.5 213v10q0 125 88.5 213t212.5 88h260v158q0 74 -52 126t-126 52h-72q-74 0 -126 -52t-52 -126v-37l-123 20v10q0 125 88.5 213t212.5 88h72q124 0 212.5 -88t88.5 -213v-743zM684 274
v222h-260q-73 0 -125.5 -52.5t-52.5 -126.5v-43q0 -74 52 -126t126 -52h82q74 0 126 52t52 126zM215 1446h94q0 -66 49.5 -101.5t126.5 -35.5q78 0 128.5 35.5t50.5 101.5h94q0 -111 -77 -171.5t-196 -60.5q-120 0 -195 60t-75 172z" />
    <glyph glyph-name="Aogonek" unicode="&#x104;" horiz-adv-x="950" 
d="M797 0l-95 334h-454l-94 -334h-134l420 1434h68l422 -1434q-16 -26 -33 -66q-33 -80 -33 -137q0 -59 28 -89t79 -30q33 0 71 21q22 13 31 22v-71q-19 -20 -37 -27q-43 -26 -96 -26q-75 0 -122.5 45.5t-47.5 128.5q0 88 41 161q17 36 43 68h-57zM471 1118l-188 -661h385
l-189 661l-4 53z" />
    <glyph glyph-name="aogonek" unicode="&#x105;" 
d="M731 0l-33 102q-42 -57 -105.5 -89.5t-137.5 -32.5h-31q-124 0 -212.5 88t-88.5 213v10q0 125 88.5 213t212.5 88h260v158q0 74 -52 126t-126 52h-72q-74 0 -126 -52t-52 -126v-37l-123 20v10q0 125 88.5 213t212.5 88h72q124 0 212.5 -88t88.5 -213v-743
q-16 -26 -33 -66q-33 -80 -33 -137q0 -59 28 -89t79 -30q34 0 72 21q20 12 30 22v-71q-19 -20 -37 -27q-43 -26 -96 -26q-75 0 -122.5 45.5t-47.5 128.5q0 88 41 161q17 36 43 68zM684 274v222h-260q-73 0 -125.5 -52.5t-52.5 -126.5v-43q0 -74 52 -126t126 -52h82
q74 0 126 52t52 126z" />
    <glyph glyph-name="Cacute" unicode="&#x106;" horiz-adv-x="1073" 
d="M950 389v-57q0 -146 -103 -249t-249 -103h-102q-146 0 -249.5 103t-103.5 249v770q0 146 103.5 249t249.5 103h102q146 0 249 -103t103 -249v-58l-129 -20v78q0 94 -67.5 161.5t-161.5 67.5h-90q-94 0 -162 -67.5t-68 -161.5v-770q0 -94 68 -162t162 -68h90
q94 0 161.5 68t67.5 162v78zM762 1843l-277 -246h-92l164 246h205z" />
    <glyph glyph-name="cacute" unicode="&#x107;" 
d="M807 322v-41q0 -125 -88.5 -213t-212.5 -88h-82q-124 0 -212.5 88t-88.5 213v462q0 125 88.5 213t212.5 88h82q124 0 212.5 -88t88.5 -213v-41l-123 -20v68q0 74 -52 126t-126 52h-82q-74 0 -126 -52t-52 -126v-476q0 -74 52 -126t126 -52h82q74 0 126 52t52 126v68z
M690 1434l-276 -246h-92l163 246h205z" />
    <glyph glyph-name="Ccaron" unicode="&#x10c;" horiz-adv-x="1073" 
d="M950 389v-57q0 -146 -103 -249t-249 -103h-102q-146 0 -249.5 103t-103.5 249v770q0 146 103.5 249t249.5 103h102q146 0 249 -103t103 -249v-58l-129 -20v78q0 94 -67.5 161.5t-161.5 67.5h-90q-94 0 -162 -67.5t-68 -161.5v-770q0 -94 68 -162t162 -68h90
q94 0 161.5 68t67.5 162v78zM803 1843l-205 -246h-123l-205 246h123l144 -164l143 164h123z" />
    <glyph glyph-name="ccaron" unicode="&#x10d;" 
d="M807 322v-41q0 -125 -88.5 -213t-212.5 -88h-82q-124 0 -212.5 88t-88.5 213v462q0 125 88.5 213t212.5 88h82q124 0 212.5 -88t88.5 -213v-41l-123 -20v68q0 74 -52 126t-126 52h-82q-74 0 -126 -52t-52 -126v-476q0 -74 52 -126t126 -52h82q74 0 126 52t52 126v68z
M731 1434l-205 -246h-123l-204 246h123l143 -164l143 164h123z" />
    <glyph glyph-name="Dcaron" unicode="&#x10e;" horiz-adv-x="1114" 
d="M971 1081v-729q0 -146 -103.5 -249t-249.5 -103h-454v1434h454q146 0 249.5 -103.5t103.5 -249.5zM842 352v729q0 94 -68 162t-162 68h-319v-1188h319q94 0 162 67.5t68 161.5zM823 1843l-205 -246h-122l-205 246h123l143 -164l143 164h123z" />
    <glyph glyph-name="dcaron" unicode="&#x10f;" horiz-adv-x="1167" 
d="M807 0h-41l-68 104q-42 -58 -105.5 -91t-137.5 -33h-31q-124 0 -212.5 88t-88.5 213v462q0 125 88.5 213t212.5 88h31q141 0 229 -106v496h123v-1434zM684 274v476q0 74 -52 126t-126 52h-82q-74 0 -126 -52t-52 -126v-476q0 -74 52 -126t126 -52h82q74 0 126 52t52 126z
M1147 1434l-103 -441h-51v441h154z" />
    <glyph glyph-name="Dcroat" unicode="&#x110;" horiz-adv-x="1138" 
d="M61 686h127v748h455q146 0 249 -103.5t103 -249.5v-729q0 -146 -103 -249t-249 -103h-455v584h-127v102zM866 352v729q0 94 -67.5 162t-161.5 68h-320v-625h240v-102h-240v-461h320q94 0 161.5 67.5t67.5 161.5z" />
    <glyph glyph-name="dcroat" unicode="&#x111;" 
d="M807 0h-41l-68 104q-42 -58 -105.5 -91t-137.5 -33h-31q-124 0 -212.5 88t-88.5 213v462q0 125 88.5 213t212.5 88h31q141 0 229 -106v240h-326v116h326v140h123v-140h117v-116h-117v-1178zM684 274v476q0 74 -52 126t-126 52h-82q-74 0 -126 -52t-52 -126v-476
q0 -74 52 -126t126 -52h82q74 0 126 52t52 126z" />
    <glyph glyph-name="Emacron" unicode="&#x112;" horiz-adv-x="1052" 
d="M971 0h-807v1434h807v-123h-678v-533h549v-123h-549v-532h678v-123zM287 1640v99h518v-99h-518z" />
    <glyph glyph-name="emacron" unicode="&#x113;" 
d="M807 322v-41q0 -125 -88.5 -213t-212.5 -88h-82q-124 0 -212.5 88t-88.5 213v462q0 125 88.5 213t212.5 88h82q124 0 212.5 -88t88.5 -213v-241h-561v-228q0 -74 52 -126t126 -52h82q74 0 126 52t52 126v68zM684 598v152q0 74 -52 126t-126 52h-82q-74 0 -126 -52
t-52 -126v-152h438zM207 1231v98h518v-98h-518z" />
    <glyph glyph-name="Edotaccent" unicode="&#x116;" horiz-adv-x="1052" 
d="M971 0h-807v1434h807v-123h-678v-533h549v-123h-549v-532h678v-123zM643 1640h-154v154h154v-154z" />
    <glyph glyph-name="edotaccent" unicode="&#x117;" 
d="M807 322v-41q0 -125 -88.5 -213t-212.5 -88h-82q-124 0 -212.5 88t-88.5 213v462q0 125 88.5 213t212.5 88h82q124 0 212.5 -88t88.5 -213v-241h-561v-228q0 -74 52 -126t126 -52h82q74 0 126 52t52 126v68zM684 598v152q0 74 -52 126t-126 52h-82q-74 0 -126 -52
t-52 -126v-152h438zM541 1231h-154v153h154v-153z" />
    <glyph glyph-name="Eogonek" unicode="&#x118;" horiz-adv-x="1052" 
d="M614 0h-450v1434h807v-123h-678v-533h549v-123h-549v-532h678v-123h-281q-16 -26 -33 -66q-32 -78 -32 -137t28 -89t78 -30q34 0 72 21q23 13 31 22v-71q-19 -20 -37 -27q-43 -26 -97 -26q-75 0 -122.5 45.5t-47.5 128.5q0 88 41 161q17 36 43 68z" />
    <glyph glyph-name="eogonek" unicode="&#x119;" 
d="M807 322v-41q0 -97 -55.5 -174.5t-143.5 -108.5q-13 -13 -38 -78.5t-25 -122.5q0 -59 28 -89t78 -30q34 0 72 21q23 13 31 22v-71q-20 -20 -37 -27q-43 -26 -96 -26q-75 0 -122.5 45.5t-47.5 128.5q0 61 22 117t47 92h-14h-82q-124 0 -212.5 88t-88.5 213v462
q0 125 88.5 213t212.5 88h82q124 0 212.5 -88t88.5 -213v-241h-561v-228q0 -74 52 -126t126 -52h82q74 0 126 52t52 126v68zM684 598v152q0 74 -52 126t-126 52h-82q-74 0 -126 -52t-52 -126v-152h438z" />
    <glyph glyph-name="Ecaron" unicode="&#x11a;" horiz-adv-x="1052" 
d="M971 0h-807v1434h807v-123h-678v-533h549v-123h-549v-532h678v-123zM834 1843l-205 -246h-123l-205 246h123l143 -164l144 164h123z" />
    <glyph glyph-name="ecaron" unicode="&#x11b;" 
d="M807 322v-41q0 -125 -88.5 -213t-212.5 -88h-82q-124 0 -212.5 88t-88.5 213v462q0 125 88.5 213t212.5 88h82q124 0 212.5 -88t88.5 -213v-241h-561v-228q0 -74 52 -126t126 -52h82q74 0 126 52t52 126v68zM684 598v152q0 74 -52 126t-126 52h-82q-74 0 -126 -52
t-52 -126v-152h438zM731 1434l-205 -246h-123l-204 246h123l143 -164l143 164h123z" />
    <glyph glyph-name="Gbreve" unicode="&#x11e;" horiz-adv-x="1093" 
d="M950 754v-754h-41l-75 115q-104 -135 -263 -135h-75q-146 0 -249.5 103t-103.5 249v770q0 146 103.5 249t249.5 103h102q146 0 249 -103t103 -249v-58l-129 -20v78q0 94 -67.5 161.5t-161.5 67.5h-90q-94 0 -162 -67.5t-68 -161.5v-770q0 -94 68 -162t162 -68h90
q94 0 161.5 68t67.5 162v299h-229v123h358zM274 1829h95q0 -66 49.5 -101.5t126.5 -35.5q78 0 128 35.5t50 101.5h94q0 -111 -76.5 -171.5t-195.5 -60.5q-120 0 -195.5 60t-75.5 172z" />
    <glyph glyph-name="gbreve" unicode="&#x11f;" 
d="M817 -125v-4q0 -123 -87 -202t-214 -79h-51q-127 0 -214 79t-87 202v4q0 118 82 197q-48 30 -76.5 79.5t-28.5 108.5q0 115 86 176q-48 42 -76 102t-28 128v77q0 125 88.5 213t212.5 88h51q74 0 138 -33t106 -91l67 104h41v-358q0 -124 -88.5 -212.5t-212.5 -88.5h-178
q-43 0 -73.5 -31t-30.5 -74t30.5 -73.5t73.5 -30.5h168q127 0 214 -79t87 -202zM705 659v91q0 73 -52.5 125.5t-126.5 52.5h-102q-74 0 -126 -52t-52 -126v-91q0 -73 52 -125.5t126 -52.5h102q74 0 126.5 52.5t52.5 125.5zM700 -135v16q0 72 -51 115t-127 43h-63
q-76 0 -127 -43t-51 -115v-16q0 -72 51 -115t127 -43h63q76 0 127 43t51 115zM195 1446h94q0 -66 49.5 -101.5t126.5 -35.5q78 0 128 35.5t50 101.5h94q0 -111 -76.5 -171.5t-195.5 -60.5q-120 0 -195 60t-75 172z" />
    <glyph glyph-name="Gcommaaccent" unicode="&#x122;" horiz-adv-x="1093" 
d="M950 754v-754h-41l-75 115q-104 -135 -263 -135h-75q-146 0 -249.5 103t-103.5 249v770q0 146 103.5 249t249.5 103h102q146 0 249 -103t103 -249v-58l-129 -20v78q0 94 -67.5 161.5t-161.5 67.5h-90q-94 0 -162 -67.5t-68 -161.5v-770q0 -94 68 -162t162 -68h90
q94 0 161.5 68t67.5 162v299h-229v123h358zM623 -164l-103 -440h-51v440h154z" />
    <glyph glyph-name="gcommaaccent" unicode="&#x123;" 
d="M817 -125v-4q0 -123 -87 -202t-214 -79h-51q-127 0 -214 79t-87 202v4q0 118 82 197q-48 30 -76.5 79.5t-28.5 108.5q0 115 86 176q-48 42 -76 102t-28 128v77q0 125 88.5 213t212.5 88h51q74 0 138 -33t106 -91l67 104h41v-358q0 -124 -88.5 -212.5t-212.5 -88.5h-178
q-43 0 -73.5 -31t-30.5 -74t30.5 -73.5t73.5 -30.5h168q127 0 214 -79t87 -202zM705 659v91q0 73 -52.5 125.5t-126.5 52.5h-102q-74 0 -126 -52t-52 -126v-91q0 -73 52 -125.5t126 -52.5h102q74 0 126.5 52.5t52.5 125.5zM700 -135v16q0 72 -51 115t-127 43h-63
q-76 0 -127 -43t-51 -115v-16q0 -72 51 -115t127 -43h63q76 0 127 43t51 115zM387 1188l102 440h52v-440h-154z" />
    <glyph glyph-name="hbar" unicode="&#x127;" 
d="M807 0h-123v750q0 74 -52 126t-126 52h-82q-74 0 -126 -52t-52 -126v-750h-123v1188h-123v102h123v144h123v-144h370v-102h-370v-250q88 106 229 106h31q124 0 212.5 -88t88.5 -213v-743z" />
    <glyph glyph-name="Itilde" unicode="&#x128;" horiz-adv-x="456" 
d="M293 0h-129v1434h129v-1434zM365 1729q41 0 63.5 31t22.5 83h94q0 -95 -47 -155t-136 -60q-42 0 -83.5 18t-69 39.5t-60 39.5t-59.5 18q-40 0 -62 -31t-22 -82h-94q0 95 46.5 154t135.5 59q40 0 79.5 -18t65.5 -39t60.5 -39t65.5 -18z" />
    <glyph glyph-name="itilde" unicode="&#x129;" horiz-adv-x="450" 
d="M287 0h-123v1024h123v-1024zM362 1319q41 0 64 31.5t23 83.5h94q0 -95 -47 -155t-136 -60q-42 0 -83.5 18t-69 39t-60 39t-59.5 18q-40 0 -62 -30.5t-22 -81.5h-94q0 95 46.5 154t135.5 59q40 0 79 -18t65.5 -39.5t60.5 -39.5t65 -18z" />
    <glyph glyph-name="Imacron" unicode="&#x12a;" horiz-adv-x="456" 
d="M293 0h-129v1434h129v-1434zM-31 1640v99h518v-99h-518z" />
    <glyph glyph-name="imacron" unicode="&#x12b;" horiz-adv-x="450" 
d="M287 0h-123v1024h123v-1024zM-33 1231v98h518v-98h-518z" />
    <glyph glyph-name="Iogonek" unicode="&#x12e;" horiz-adv-x="456" 
d="M217 0h-53v1434h129v-1434q-16 -26 -33 -66q-33 -80 -33 -137q0 -59 28 -89t79 -30q34 0 72 21q20 12 30 22v-71q-20 -20 -37 -27q-43 -26 -96 -26q-75 0 -122.5 45.5t-47.5 128.5q0 88 41 161q17 36 43 68z" />
    <glyph glyph-name="iogonek" unicode="&#x12f;" horiz-adv-x="450" 
d="M211 0h-47v1024h123v-1024q-16 -26 -33 -66q-33 -80 -33 -137q0 -59 28 -89t79 -30q33 0 71 21q23 13 31 22v-71q-19 -20 -37 -27q-43 -26 -96 -26q-75 0 -122.5 45.5t-47.5 128.5q0 88 41 161q17 36 43 68zM297 1270h-143v164h143v-164z" />
    <glyph glyph-name="Idotaccent" unicode="&#x130;" horiz-adv-x="456" 
d="M293 0h-129v1434h129v-1434zM305 1640h-153v154h153v-154z" />
    <glyph glyph-name="dotlessi" unicode="&#x131;" horiz-adv-x="450" 
d="M287 0h-123v1024h123v-1024z" />
    <glyph glyph-name="IJ" unicode="&#x132;" horiz-adv-x="1386" 
d="M293 0h-129v1434h129v-1434zM1264 1434v-1102q0 -146 -103.5 -249t-249.5 -103h-41q-146 0 -249 103t-103 249v57l129 21v-78q0 -94 68 -162t162 -68h28q94 0 162 68t68 162v1102h129z" />
    <glyph glyph-name="ij" unicode="&#x133;" horiz-adv-x="901" 
d="M297 1270h-143v164h143v-164zM287 0h-123v1024h123v-1024zM748 1270h-144v164h144v-164zM737 1024v-1133q0 -125 -88.5 -213t-212.5 -88v117q74 0 126 52.5t52 125.5v1139h123z" />
    <glyph glyph-name="Jcircumflex" unicode="&#x134;" 
d="M807 1434v-1102q0 -146 -103 -249t-249 -103h-41q-146 0 -249.5 103t-103.5 249v57l129 21v-78q0 -94 68 -162t162 -68h29q94 0 161.5 68t67.5 162v1102h129zM803 1843l205 -246h-123l-144 164l-143 -164h-123l205 246h123z" />
    <glyph glyph-name="jcircumflex" unicode="&#x135;" horiz-adv-x="450" 
d="M287 1024v-1133q0 -125 -88.5 -213t-212.5 -88v117q74 0 126 52.5t52 125.5v1139h123zM287 1434l205 -246h-123l-144 164l-143 -164h-123l205 246h123z" />
    <glyph glyph-name="Kcommaaccent" unicode="&#x136;" horiz-adv-x="1064" 
d="M1024 0h-160l-540 717l540 717h160l-551 -717zM293 0h-129v1434h129v-1434zM608 -164l-102 -440h-51v440h153z" />
    <glyph glyph-name="kcommaaccent" unicode="&#x137;" 
d="M889 0h-160l-418 512l418 512h160l-428 -512zM287 0h-123v1434h123v-1434zM563 -164l-102 -440h-51v440h153z" />
    <glyph glyph-name="kgreenlandic" unicode="&#x138;" 
d="M889 0h-160l-418 512l418 512h160l-428 -512zM287 0h-123v1024h123v-1024z" />
    <glyph glyph-name="Lacute" unicode="&#x139;" horiz-adv-x="862" 
d="M821 0h-678v1434h129v-1311h549v-123zM539 1843l-277 -246h-92l164 246h205z" />
    <glyph glyph-name="lacute" unicode="&#x13a;" horiz-adv-x="450" 
d="M287 0h-123v1434h123v-1434zM496 1843l-277 -246h-92l164 246h205z" />
    <glyph glyph-name="Lcommaaccent" unicode="&#x13b;" horiz-adv-x="862" 
d="M821 0h-678v1434h129v-1311h549v-123zM549 -164l-103 -440h-51v440h154z" />
    <glyph glyph-name="lcommaaccent" unicode="&#x13c;" horiz-adv-x="450" 
d="M287 0h-123v1434h123v-1434zM301 -164l-102 -440h-52v440h154z" />
    <glyph glyph-name="Lcaron" unicode="&#x13d;" horiz-adv-x="862" 
d="M821 0h-678v1434h129v-1311h549v-123zM705 1434l-103 -441h-51v441h154z" />
    <glyph glyph-name="lcaron" unicode="&#x13e;" horiz-adv-x="647" 
d="M287 0h-123v1434h123v-1434zM627 1434l-103 -441h-51v441h154z" />
    <glyph glyph-name="Ldotaccent" unicode="&#x13f;" horiz-adv-x="841" 
d="M821 0h-678v1434h129v-1311h549v-123zM664 655h-154v154h154v-154z" />
    <glyph glyph-name="ldot" unicode="&#x140;" horiz-adv-x="665" 
d="M287 0h-123v1434h123v-1434zM604 655h-153v154h153v-154z" />
    <glyph glyph-name="Lslash" unicode="&#x141;" horiz-adv-x="841" 
d="M821 0h-678v539l-127 -72v117l127 71v779h129v-707l381 217v-117l-381 -217v-487h549v-123z" />
    <glyph glyph-name="lslash" unicode="&#x142;" horiz-adv-x="585" 
d="M354 0h-123v578l-170 -91v117l170 90v740h123v-674l170 90v-117l-170 -90v-643z" />
    <glyph glyph-name="Nacute" unicode="&#x143;" horiz-adv-x="1134" 
d="M971 0h-68l-598 1044l-12 62v-1106h-129v1434h67l598 -1045l13 -61v1106h129v-1434zM834 1843l-277 -246h-92l164 246h205z" />
    <glyph glyph-name="nacute" unicode="&#x144;" 
d="M807 0h-123v750q0 74 -52 126t-126 52h-82q-74 0 -126 -52t-52 -126v-750h-123v1024h41l67 -104q42 58 106 91t138 33h31q124 0 212.5 -88t88.5 -213v-743zM690 1434l-276 -246h-92l163 246h205z" />
    <glyph glyph-name="Ncommaaccent" unicode="&#x145;" horiz-adv-x="1134" 
d="M971 0h-68l-598 1044l-12 62v-1106h-129v1434h67l598 -1045l13 -61v1106h129v-1434zM643 -164l-102 -440h-52v440h154z" />
    <glyph glyph-name="ncommaaccent" unicode="&#x146;" 
d="M807 0h-123v750q0 74 -52 126t-126 52h-82q-74 0 -126 -52t-52 -126v-750h-123v1024h41l67 -104q42 58 106 91t138 33h31q124 0 212.5 -88t88.5 -213v-743zM541 -164l-103 -440h-51v440h154z" />
    <glyph glyph-name="Ncaron" unicode="&#x147;" horiz-adv-x="1134" 
d="M971 0h-68l-598 1044l-12 62v-1106h-129v1434h67l598 -1045l13 -61v1106h129v-1434zM834 1843l-205 -246h-123l-205 246h123l143 -164l144 164h123z" />
    <glyph glyph-name="ncaron" unicode="&#x148;" 
d="M807 0h-123v750q0 74 -52 126t-126 52h-82q-74 0 -126 -52t-52 -126v-750h-123v1024h41l67 -104q42 58 106 91t138 33h31q124 0 212.5 -88t88.5 -213v-743zM731 1434l-205 -246h-123l-204 246h123l143 -164l143 164h123z" />
    <glyph glyph-name="Omacron" unicode="&#x14c;" horiz-adv-x="1093" 
d="M950 1102v-770q0 -146 -103 -249t-249 -103h-102q-146 0 -249.5 103t-103.5 249v770q0 146 103.5 249t249.5 103h102q146 0 249 -103t103 -249zM821 332v770q0 94 -67.5 161.5t-161.5 67.5h-90q-94 0 -162 -67.5t-68 -161.5v-770q0 -94 68 -162t162 -68h90q94 0 161.5 68
t67.5 162zM287 1640v99h518v-99h-518z" />
    <glyph glyph-name="omacron" unicode="&#x14d;" 
d="M807 743v-462q0 -125 -88.5 -213t-212.5 -88h-82q-124 0 -212.5 88t-88.5 213v462q0 125 88.5 213t212.5 88h82q124 0 212.5 -88t88.5 -213zM684 274v476q0 74 -52 126t-126 52h-82q-74 0 -126 -52t-52 -126v-476q0 -74 52 -126t126 -52h82q74 0 126 52t52 126zM207 1231
v98h518v-98h-518z" />
    <glyph glyph-name="Ohungarumlaut" unicode="&#x150;" horiz-adv-x="1093" 
d="M950 1102v-770q0 -146 -103 -249t-249 -103h-102q-146 0 -249.5 103t-103.5 249v770q0 146 103.5 249t249.5 103h102q146 0 249 -103t103 -249zM821 332v770q0 94 -67.5 161.5t-161.5 67.5h-90q-94 0 -162 -67.5t-68 -161.5v-770q0 -94 68 -162t162 -68h90q94 0 161.5 68
t67.5 162zM653 1843l-276 -246h-92l164 246h204zM973 1843l-277 -246h-92l164 246h205z" />
    <glyph glyph-name="ohungarumlaut" unicode="&#x151;" 
d="M807 743v-462q0 -125 -88.5 -213t-212.5 -88h-82q-124 0 -212.5 88t-88.5 213v462q0 125 88.5 213t212.5 88h82q124 0 212.5 -88t88.5 -213zM684 274v476q0 74 -52 126t-126 52h-82q-74 0 -126 -52t-52 -126v-476q0 -74 52 -126t126 -52h82q74 0 126 52t52 126zM551 1434
l-277 -246h-92l164 246h205zM870 1434l-276 -246h-92l164 246h204z" />
    <glyph glyph-name="OE" unicode="&#x152;" horiz-adv-x="1607" 
d="M950 655v-323q0 -118 -69 -209h645v-123h-811q-56 -20 -117 -20h-102q-146 0 -249.5 103t-103.5 249v770q0 146 103.5 249t249.5 103h102q61 0 117 -20h811v-123h-645q69 -95 69 -209v-324h447v-123h-447zM821 332v770q0 94 -67.5 161.5t-161.5 67.5h-90
q-94 0 -162 -67.5t-68 -161.5v-770q0 -94 68 -162t162 -68h90q94 0 161.5 68t67.5 162z" />
    <glyph glyph-name="oe" unicode="&#x153;" horiz-adv-x="1492" 
d="M1370 322v-41q0 -125 -88 -213t-213 -88h-82q-73 0 -136.5 32t-105.5 88q-42 -56 -104.5 -88t-134.5 -32h-82q-124 0 -212.5 88t-88.5 213v462q0 125 88.5 213t212.5 88h82q72 0 134.5 -32.5t104.5 -87.5q42 55 106 87.5t136 32.5h82q125 0 213 -88t88 -213v-241h-561
v-228q0 -74 52.5 -126t125.5 -52h82q73 0 125.5 52t52.5 126v68zM684 274v476q0 74 -52 126t-126 52h-82q-74 0 -126 -52t-52 -126v-476q0 -74 52 -126t126 -52h82q74 0 126 52t52 126zM1247 598v152q0 74 -52.5 126t-125.5 52h-82q-73 0 -125.5 -52t-52.5 -126v-152h438z
" />
    <glyph glyph-name="Racute" unicode="&#x154;" horiz-adv-x="1069" 
d="M987 0h-149l-389 612h-177v-612h-129v1434h455q146 0 249 -103.5t103 -249.5v-116q0 -146 -103 -249.5t-249 -103.5zM821 965v116q0 94 -67.5 162t-161.5 68h-320v-576h320q94 0 161.5 68t67.5 162zM739 1843l-276 -246h-92l164 246h204z" />
    <glyph glyph-name="racute" unicode="&#x155;" horiz-adv-x="587" 
d="M547 907h-123q-74 0 -126 -52.5t-52 -125.5v-729h-123v1024h41l67 -104q42 58 106 91t138 33h72v-137zM561 1434l-276 -246h-92l163 246h205z" />
    <glyph glyph-name="Rcommaaccent" unicode="&#x156;" horiz-adv-x="1069" 
d="M987 0h-149l-389 612h-177v-612h-129v1434h455q146 0 249 -103.5t103 -249.5v-116q0 -146 -103 -249.5t-249 -103.5zM821 965v116q0 94 -67.5 162t-161.5 68h-320v-576h320q94 0 161.5 68t67.5 162zM618 -164l-102 -440h-51v440h153z" />
    <glyph glyph-name="rcommaaccent" unicode="&#x157;" horiz-adv-x="587" 
d="M547 907h-123q-74 0 -126 -52.5t-52 -125.5v-729h-123v1024h41l67 -104q42 58 106 91t138 33h72v-137zM276 -164l-102 -440h-51v440h153z" />
    <glyph glyph-name="Rcaron" unicode="&#x158;" horiz-adv-x="1069" 
d="M987 0h-149l-389 612h-177v-612h-129v1434h455q146 0 249 -103.5t103 -249.5v-116q0 -146 -103 -249.5t-249 -103.5zM821 965v116q0 94 -67.5 162t-161.5 68h-320v-576h320q94 0 161.5 68t67.5 162zM780 1843l-205 -246h-122l-205 246h123l143 -164l143 164h123z" />
    <glyph glyph-name="rcaron" unicode="&#x159;" horiz-adv-x="587" 
d="M547 907h-123q-74 0 -126 -52.5t-52 -125.5v-729h-123v1024h41l67 -104q42 58 106 91t138 33h72v-137zM582 1434l-205 -246h-123l-205 246h123l143 -164l144 164h123z" />
    <glyph glyph-name="Sacute" unicode="&#x15a;" horiz-adv-x="1062" 
d="M950 375v-43q0 -145 -107.5 -248.5t-254.5 -103.5h-103q-147 0 -254.5 103.5t-107.5 248.5v57l129 21v-78q0 -93 72 -161.5t168 -68.5h90q96 0 167.5 68.5t71.5 161.5v43q0 63 -23 111.5t-62.5 79.5t-90.5 56t-107 45.5t-112 42t-107 52.5t-90.5 70.5t-62.5 101.5
t-23 141v27q0 146 103.5 249t249.5 103h92q146 0 249 -103t103 -249v-37l-129 -21v58q0 94 -67.5 161.5t-161.5 67.5h-80q-94 0 -162 -67.5t-68 -161.5v-27q0 -75 37.5 -129t97 -86.5t132 -60t145 -60t132 -75t97 -116t37.5 -173.5zM776 1843l-276 -246h-92l163 246h205z
" />
    <glyph glyph-name="sacute" unicode="&#x15b;" horiz-adv-x="940" 
d="M827 260q0 -121 -92 -200.5t-219 -79.5h-82q-124 0 -217.5 89t-93.5 212v41l123 20v-68q0 -73 57 -125.5t131 -52.5h82q77 0 133 43.5t56 114.5q0 47 -19 81.5t-51.5 56t-75 37.5t-89 29.5t-93 28t-89 37t-75 52t-51.5 77.5t-19 111q0 123 87 201.5t214 78.5h72
q124 0 212.5 -88t88.5 -213v-4l-123 -20v31q0 74 -52 126t-126 52h-72q-76 0 -127 -43t-51 -115q0 -50 24 -86.5t63.5 -56.5t90 -38.5t103 -32t103 -37.5t90 -54t63.5 -82.5t24 -122.5zM715 1434l-277 -246h-92l164 246h205z" />
    <glyph glyph-name="Scedilla" unicode="&#x15e;" horiz-adv-x="1062" 
d="M463 -150l80 130h-58q-147 0 -254.5 103.5t-107.5 248.5v57l129 21v-78q0 -93 72 -161.5t168 -68.5h90q96 0 167.5 68.5t71.5 161.5v43q0 63 -23 111.5t-62.5 79.5t-90.5 56t-107 45.5t-112 42t-107 52.5t-90.5 70.5t-62.5 101.5t-23 141v27q0 146 103.5 249t249.5 103
h92q146 0 249 -103t103 -249v-37l-129 -21v58q0 94 -67.5 161.5t-161.5 67.5h-80q-94 0 -162 -67.5t-68 -161.5v-27q0 -75 37.5 -129t97 -86.5t132 -60t145 -60t132 -75t97 -116t37.5 -173.5v-43q0 -134 -93 -232t-226 -116l-49 -86q19 -9 36.5 -22.5t37.5 -47t20 -74.5
q0 -77 -51.5 -121.5t-132.5 -44.5q-84 0 -148 64l47 72q14 -17 41.5 -31.5t61.5 -14.5q38 0 63 21.5t25 58.5q0 46 -35 71.5t-84 20.5z" />
    <glyph glyph-name="scedilla" unicode="&#x15f;" horiz-adv-x="940" 
d="M401 -150l80 130h-47q-124 0 -217.5 89t-93.5 212v41l123 20v-68q0 -73 57 -125.5t131 -52.5h82q77 0 133 43.5t56 114.5q0 47 -19 81.5t-51.5 56t-75 37.5t-89 29.5t-93 28t-89 37t-75 52t-51.5 77.5t-19 111q0 123 87 201.5t214 78.5h72q124 0 212.5 -88t88.5 -213v-4
l-123 -20v31q0 74 -52 126t-126 52h-72q-76 0 -127 -43t-51 -115q0 -50 24 -86.5t63.5 -56.5t90 -38.5t103 -32t103 -37.5t90 -54t63.5 -82.5t24 -122.5q0 -107 -74 -182.5t-184 -93.5l-49 -86q19 -9 36.5 -22.5t37.5 -47t20 -74.5q0 -77 -51.5 -121.5t-132.5 -44.5
q-83 0 -147 64l47 72q40 -46 102 -46q38 0 63 21.5t25 58.5q0 46 -35 71.5t-84 20.5z" />
    <glyph glyph-name="Scaron" unicode="&#x160;" horiz-adv-x="1073" 
d="M950 375v-43q0 -145 -107.5 -248.5t-254.5 -103.5h-103q-147 0 -254.5 103.5t-107.5 248.5v57l129 21v-78q0 -93 72 -161.5t168 -68.5h90q96 0 167.5 68.5t71.5 161.5v43q0 63 -23 111.5t-62.5 79.5t-90.5 56t-107 45.5t-112 42t-107 52.5t-90.5 70.5t-62.5 101.5
t-23 141v27q0 146 103.5 249t249.5 103h92q146 0 249 -103t103 -249v-37l-129 -21v58q0 94 -67.5 161.5t-161.5 67.5h-80q-94 0 -162 -67.5t-68 -161.5v-27q0 -75 37.5 -129t97 -86.5t132 -60t145 -60t132 -75t97 -116t37.5 -173.5zM803 1843l-205 -246h-123l-205 246h123
l144 -164l143 164h123z" />
    <glyph glyph-name="scaron" unicode="&#x161;" horiz-adv-x="950" 
d="M827 260q0 -121 -92 -200.5t-219 -79.5h-82q-124 0 -217.5 89t-93.5 212v41l123 20v-68q0 -73 57 -125.5t131 -52.5h82q77 0 133 43.5t56 114.5q0 47 -19 81.5t-51.5 56t-75 37.5t-89 29.5t-93 28t-89 37t-75 52t-51.5 77.5t-19 111q0 123 87 201.5t214 78.5h72
q124 0 212.5 -88t88.5 -213v-4l-123 -20v31q0 74 -52 126t-126 52h-72q-76 0 -127 -43t-51 -115q0 -50 24 -86.5t63.5 -56.5t90 -38.5t103 -32t103 -37.5t90 -54t63.5 -82.5t24 -122.5zM741 1434l-204 -246h-123l-205 246h123l143 -164l143 164h123z" />
    <glyph glyph-name="Tcommaaccent" unicode="&#x162;" horiz-adv-x="894" 
d="M854 1311h-342v-1311h-129v1311h-342v123h813v-123zM524 -164l-102 -440h-51v440h153z" />
    <glyph glyph-name="tcommaaccent" unicode="&#x163;" horiz-adv-x="710" 
d="M608 0h-112q-110 0 -190.5 80t-80.5 190v637h-184v117h184v246l123 20v-266h260v-117h-260v-643q0 -61 43 -104t105 -43h112v-117zM473 -164l-102 -440h-52v440h154z" />
    <glyph glyph-name="Tcaron" unicode="&#x164;" horiz-adv-x="894" 
d="M854 1311h-342v-1311h-129v1311h-342v123h813v-123zM715 1843l-205 -246h-123l-205 246h123l144 -164l143 164h123z" />
    <glyph glyph-name="tcaron" unicode="&#x165;" horiz-adv-x="710" 
d="M608 0h-112q-110 0 -190.5 80t-80.5 190v637h-184v117h184v246l123 20v-266h260v-117h-260v-643q0 -61 43 -104t105 -43h112v-117zM651 1628l-102 -440h-51v440h153z" />
    <glyph glyph-name="Umacron" unicode="&#x16a;" horiz-adv-x="1093" 
d="M950 1434v-1102q0 -146 -103 -249t-249 -103h-102q-146 0 -249.5 103t-103.5 249v1102h129v-1102q0 -94 68 -162t162 -68h90q94 0 161.5 68t67.5 162v1102h129zM287 1640v99h518v-99h-518z" />
    <glyph glyph-name="umacron" unicode="&#x16b;" 
d="M807 0h-41l-68 104q-42 -58 -105.5 -91t-137.5 -33h-31q-124 0 -212.5 88t-88.5 213v743h123v-750q0 -74 52 -126t126 -52h82q74 0 126 52t52 126v750h123v-1024zM207 1231v98h518v-98h-518z" />
    <glyph glyph-name="Uring" unicode="&#x16e;" horiz-adv-x="1093" 
d="M950 1434v-1102q0 -146 -103 -249t-249 -103h-102q-146 0 -249.5 103t-103.5 249v1102h129v-1102q0 -94 68 -162t162 -68h90q94 0 161.5 68t67.5 162v1102h129zM334 1792q0 88 61.5 150.5t149.5 62.5t150.5 -62.5t62.5 -150.5t-62.5 -149.5t-150.5 -61.5t-149.5 61.5
t-61.5 149.5zM436 1792q0 -44 32.5 -77.5t76.5 -33.5q46 0 78 33t32 78q0 48 -31.5 80.5t-78.5 32.5q-45 0 -77 -33t-32 -80z" />
    <glyph glyph-name="uring" unicode="&#x16f;" 
d="M807 0h-41l-68 104q-42 -58 -105.5 -91t-137.5 -33h-31q-124 0 -212.5 88t-88.5 213v743h123v-750q0 -74 52 -126t126 -52h82q74 0 126 52t52 126v750h123v-1024zM252 1358q0 88 61.5 150.5t149.5 62.5t150.5 -62.5t62.5 -150.5t-62.5 -149.5t-150.5 -61.5t-149.5 61.5
t-61.5 149.5zM354 1358q0 -44 32.5 -77.5t76.5 -33.5q46 0 78 33t32 78q0 47 -31.5 79.5t-78.5 32.5q-45 0 -77 -32.5t-32 -79.5z" />
    <glyph glyph-name="Uhungarumlaut" unicode="&#x170;" horiz-adv-x="1093" 
d="M950 1434v-1102q0 -146 -103 -249t-249 -103h-102q-146 0 -249.5 103t-103.5 249v1102h129v-1102q0 -94 68 -162t162 -68h90q94 0 161.5 68t67.5 162v1102h129zM653 1843l-276 -246h-92l164 246h204zM973 1843l-277 -246h-92l164 246h205z" />
    <glyph glyph-name="uhungarumlaut" unicode="&#x171;" 
d="M807 0h-41l-68 104q-42 -58 -105.5 -91t-137.5 -33h-31q-124 0 -212.5 88t-88.5 213v743h123v-750q0 -74 52 -126t126 -52h82q74 0 126 52t52 126v750h123v-1024zM571 1434l-276 -246h-92l164 246h204zM891 1434l-277 -246h-92l164 246h205z" />
    <glyph glyph-name="Uogonek" unicode="&#x172;" horiz-adv-x="1093" 
d="M950 1434v-1102q0 -116 -65 -206t-170 -126q-16 -26 -33 -66q-33 -80 -33 -137q0 -59 28 -89t79 -30q33 0 71 21q22 13 31 22v-71q-19 -20 -37 -27q-43 -26 -96 -26q-75 0 -122.5 45.5t-47.5 128.5q0 102 70 211q-6 -2 -27 -2h-102q-146 0 -249.5 103t-103.5 249v1102
h129v-1102q0 -94 68 -162t162 -68h90q94 0 161.5 68t67.5 162v1102h129z" />
    <glyph glyph-name="uogonek" unicode="&#x173;" 
d="M731 0l-33 104q-42 -58 -105.5 -91t-137.5 -33h-31q-124 0 -212.5 88t-88.5 213v743h123v-750q0 -74 52 -126t126 -52h82q74 0 126 52t52 126v750h123v-1024q-16 -26 -33 -66q-33 -80 -33 -137q0 -59 28 -89t79 -30q34 0 72 21q20 12 30 22v-71q-19 -20 -37 -27
q-43 -26 -96 -26q-75 0 -122.5 45.5t-47.5 128.5q0 88 41 161q17 36 43 68z" />
    <glyph glyph-name="Ydieresis" unicode="&#x178;" horiz-adv-x="950" 
d="M909 1434l-368 -748v-686h-129v684l-371 750h139l295 -596l295 596h139zM358 1640h-153v154h153v-154zM745 1640h-153v154h153v-154z" />
    <glyph glyph-name="Zacute" unicode="&#x179;" horiz-adv-x="970" 
d="M889 0h-807v61l639 1250h-619v123h787v-62l-639 -1249h639v-123zM752 1843l-277 -246h-92l164 246h205z" />
    <glyph glyph-name="zacute" unicode="&#x17a;" horiz-adv-x="847" 
d="M766 0h-684v55l516 852h-496v117h664v-55l-516 -852h516v-117zM690 1434l-276 -246h-92l163 246h205z" />
    <glyph glyph-name="Zdotaccent" unicode="&#x17b;" horiz-adv-x="970" 
d="M889 0h-807v61l639 1250h-619v123h787v-62l-639 -1249h639v-123zM541 1640h-154v154h154v-154z" />
    <glyph glyph-name="zdotaccent" unicode="&#x17c;" horiz-adv-x="847" 
d="M766 0h-684v55l516 852h-496v117h664v-55l-516 -852h516v-117zM500 1231h-154v153h154v-153z" />
    <glyph glyph-name="Zcaron" unicode="&#x17d;" horiz-adv-x="970" 
d="M889 0h-807v61l639 1250h-619v123h787v-62l-639 -1249h639v-123zM752 1843l-205 -246h-123l-205 246h123l143 -164l144 164h123z" />
    <glyph glyph-name="zcaron" unicode="&#x17e;" horiz-adv-x="847" 
d="M766 0h-684v55l516 852h-496v117h664v-55l-516 -852h516v-117zM690 1434l-205 -246h-123l-204 246h123l143 -164l143 164h123z" />
    <glyph glyph-name="uni018f" unicode="&#x18f;" horiz-adv-x="1093" 
d="M592 1331h-90q-94 0 -162 -67.5t-68 -161.5v-78l-129 20v58q0 146 103.5 249t249.5 103h102q146 0 249 -103t103 -249v-770q0 -146 -103 -249t-249 -103h-102q-146 0 -249.5 103t-103.5 249v446h678v324q0 94 -67.5 161.5t-161.5 67.5zM502 102h90q94 0 161.5 68
t67.5 162v323h-549v-323q0 -94 68 -162t162 -68z" />
    <glyph glyph-name="florin" unicode="&#x192;" horiz-adv-x="751" 
d="M193 -145l124 888h-184l17 117h184l43 303q17 112 106.5 191.5t202.5 79.5h113l-17 -117h-112q-62 0 -111.5 -43.5t-56.5 -104.5l-45 -309h239l-16 -117h-240l-123 -882q-17 -111 -106.5 -191t-200.5 -80h-112l16 117h113q60 0 107.5 43t58.5 105z" />
    <glyph glyph-name="Scommaaccent" unicode="&#x218;" horiz-adv-x="1062" 
d="M950 375v-43q0 -145 -107.5 -248.5t-254.5 -103.5h-103q-147 0 -254.5 103.5t-107.5 248.5v57l129 21v-78q0 -93 72 -161.5t168 -68.5h90q96 0 167.5 68.5t71.5 161.5v43q0 63 -23 111.5t-62.5 79.5t-90.5 56t-107 45.5t-112 42t-107 52.5t-90.5 70.5t-62.5 101.5
t-23 141v27q0 146 103.5 249t249.5 103h92q146 0 249 -103t103 -249v-37l-129 -21v58q0 94 -67.5 161.5t-161.5 67.5h-80q-94 0 -162 -67.5t-68 -161.5v-27q0 -75 37.5 -129t97 -86.5t132 -60t145 -60t132 -75t97 -116t37.5 -173.5zM649 -164l-102 -440h-51v440h153z" />
    <glyph glyph-name="scommaaccent" unicode="&#x219;" horiz-adv-x="940" 
d="M827 260q0 -121 -92 -200.5t-219 -79.5h-82q-124 0 -217.5 89t-93.5 212v41l123 20v-68q0 -73 57 -125.5t131 -52.5h82q77 0 133 43.5t56 114.5q0 47 -19 81.5t-51.5 56t-75 37.5t-89 29.5t-93 28t-89 37t-75 52t-51.5 77.5t-19 111q0 123 87 201.5t214 78.5h72
q124 0 212.5 -88t88.5 -213v-4l-123 -20v31q0 74 -52 126t-126 52h-72q-76 0 -127 -43t-51 -115q0 -50 24 -86.5t63.5 -56.5t90 -38.5t103 -32t103 -37.5t90 -54t63.5 -82.5t24 -122.5zM567 -164l-102 -440h-51v440h153z" />
    <glyph glyph-name="uni021A" unicode="&#x21a;" horiz-adv-x="894" 
d="M854 1311h-342v-1311h-129v1311h-342v123h813v-123zM524 -164l-102 -440h-51v440h153z" />
    <glyph glyph-name="uni021B" unicode="&#x21b;" horiz-adv-x="710" 
d="M608 0h-112q-110 0 -190.5 80t-80.5 190v637h-184v117h184v246l123 20v-266h260v-117h-260v-643q0 -61 43 -104t105 -43h112v-117zM473 -164l-102 -440h-52v440h154z" />
    <glyph glyph-name="dotlessj" unicode="&#x237;" horiz-adv-x="450" 
d="M287 1024v-1133q0 -125 -88.5 -213t-212.5 -88v117q74 0 126 52.5t52 125.5v1139h123z" />
    <glyph glyph-name="uni0259" unicode="&#x259;" 
d="M123 702v41q0 125 88.5 213t212.5 88h82q124 0 212.5 -88t88.5 -213v-462q0 -125 -88.5 -213t-212.5 -88h-82q-124 0 -212.5 88t-88.5 213v241h561v228q0 74 -52 126t-126 52h-82q-74 0 -126 -52t-52 -126v-68zM246 426v-152q0 -74 52 -126t126 -52h82q74 0 126 52
t52 126v152h-438z" />
    <glyph glyph-name="circumflex" unicode="&#x2c6;" horiz-adv-x="942" 
d="M532 1434l205 -246h-123l-143 164l-143 -164h-123l205 246h122z" />
    <glyph glyph-name="caron" unicode="&#x2c7;" horiz-adv-x="942" 
d="M737 1434l-205 -246h-122l-205 246h123l143 -164l143 164h123z" />
    <glyph glyph-name="breve" unicode="&#x2d8;" horiz-adv-x="952" 
d="M205 1446h94q0 -66 49.5 -101.5t126.5 -35.5q78 0 128 35.5t50 101.5h95q0 -111 -77 -171.5t-196 -60.5q-120 0 -195 60t-75 172z" />
    <glyph glyph-name="dotaccent" unicode="&#x2d9;" horiz-adv-x="563" 
d="M358 1231h-153v153h153v-153z" />
    <glyph glyph-name="ring" unicode="&#x2da;" horiz-adv-x="833" 
d="M205 1358q0 88 61.5 150.5t149.5 62.5t150.5 -62.5t62.5 -150.5t-62.5 -149.5t-150.5 -61.5t-149.5 61.5t-61.5 149.5zM307 1358q0 -44 32.5 -77.5t76.5 -33.5q46 0 78 33t32 78q0 47 -31.5 79.5t-78.5 32.5q-45 0 -77 -32.5t-32 -79.5z" />
    <glyph glyph-name="ogonek" unicode="&#x2db;" horiz-adv-x="712" 
d="M289 0h76q-16 -26 -33 -66q-33 -80 -33 -137q0 -59 28 -89t79 -30q33 0 71 21q22 13 31 22v-71q-19 -20 -37 -27q-43 -26 -96 -26q-75 0 -122.5 45.5t-47.5 128.5q0 88 41 161q17 36 43 68z" />
    <glyph glyph-name="tilde" unicode="&#x2dc;" horiz-adv-x="1042" 
d="M657 1319q41 0 63.5 31.5t22.5 83.5h95q0 -95 -47 -155t-136 -60q-42 0 -83.5 18t-69 39t-60 39t-59.5 18q-40 0 -62 -30.5t-22 -81.5h-94q0 95 46.5 154t135.5 59q40 0 79 -18t65.5 -39.5t60.5 -39.5t65 -18z" />
    <glyph glyph-name="hungarumlaut" unicode="&#x2dd;" horiz-adv-x="1097" 
d="M573 1434l-276 -246h-92l164 246h204zM893 1434l-277 -246h-92l164 246h205z" />
    <glyph glyph-name="dotaccentcmb" unicode="&#x307;" horiz-adv-x="563" 
d="M358 1231h-153v153h153v-153z" />
    <glyph glyph-name="pi" unicode="&#x3c0;" horiz-adv-x="1267" 
d="M301 0v862h-199v121h1043v-121h-219v-594q0 -62 43 -104.5t104 -42.5h72v-121h-72q-113 0 -193.5 76t-80.5 188v598h-371v-862h-127z" />
    <glyph glyph-name="endash" unicode="&#x2013;" horiz-adv-x="1126" 
d="M102 743h922v-116h-922v116z" />
    <glyph glyph-name="emdash" unicode="&#x2014;" horiz-adv-x="2048" 
d="M102 743h1844v-116h-1844v116z" />
    <glyph glyph-name="quoteleft" unicode="&#x2018;" horiz-adv-x="399" 
d="M143 993l103 441h51v-441h-154z" />
    <glyph glyph-name="quoteright" unicode="&#x2019;" horiz-adv-x="399" 
d="M297 1434l-102 -441h-52v441h154z" />
    <glyph glyph-name="quotesinglbase" unicode="&#x201a;" horiz-adv-x="440" 
d="M297 154l-102 -441h-52v441h154z" />
    <glyph glyph-name="quotedblleft" unicode="&#x201c;" horiz-adv-x="645" 
d="M348 993l103 441h51v-441h-154zM102 993l103 441h51v-441h-154z" />
    <glyph glyph-name="quotedblright" unicode="&#x201d;" horiz-adv-x="645" 
d="M297 1434l-102 -441h-52v441h154zM543 1434l-103 -441h-51v441h154z" />
    <glyph glyph-name="quotedblbase" unicode="&#x201e;" horiz-adv-x="645" 
d="M297 154l-102 -441h-52v441h154zM543 154l-103 -441h-51v441h154z" />
    <glyph glyph-name="dagger" unicode="&#x2020;" horiz-adv-x="925" 
d="M82 1032l315 -22l-6 424h144l-7 -424l316 22v-145l-318 22l-16 -1319h-94l-19 1319l-315 -22v145z" />
    <glyph glyph-name="daggerdbl" unicode="&#x2021;" horiz-adv-x="925" 
d="M82 1032l319 -22l-10 424h144l-11 -424l320 22v-145l-322 22l-10 -399l8 -395l324 22v-145l-320 20l11 -422h-144l10 424l-319 -22v145l321 -22l11 393l-11 401l-321 -22v145z" />
    <glyph glyph-name="bullet" unicode="&#x2022;" horiz-adv-x="958" 
d="M123 709q0 148 104 252t252 104t252.5 -104t104.5 -252t-104.5 -252.5t-252.5 -104.5t-252 104.5t-104 252.5z" />
    <glyph glyph-name="ellipsis" unicode="&#x2026;" horiz-adv-x="1484" 
d="M297 0h-154v154h154v-154zM819 0h-153v154h153v-154zM1341 0h-153v154h153v-154z" />
    <glyph glyph-name="perthousand" unicode="&#x2030;" horiz-adv-x="1828" 
d="M528 1264v-349q0 -73 -52 -125.5t-126 -52.5h-28q-74 0 -126.5 52.5t-52.5 125.5v349q0 73 52.5 125.5t126.5 52.5h28q74 0 126 -52.5t52 -125.5zM430 915v349q0 35 -24.5 58.5t-59.5 23.5h-20q-35 0 -59.5 -23.5t-24.5 -58.5v-349q0 -35 24 -58t60 -23h20q36 0 60 23
t24 58zM1198 518v-348q0 -73 -52 -125.5t-126 -52.5h-29q-74 0 -126 52.5t-52 125.5v348q0 73 52 125.5t126 52.5h29q74 0 126 -52.5t52 -125.5zM1100 170v348q0 35 -24.5 58.5t-59.5 23.5h-21q-35 0 -59.5 -23.5t-24.5 -58.5v-348q0 -35 24.5 -58.5t59.5 -23.5h21
q35 0 59.5 23.5t24.5 58.5zM319 0h-114l817 1434h115zM1706 518v-348q0 -73 -52 -125.5t-126 -52.5h-29q-74 0 -126 52.5t-52 125.5v348q0 73 52 125.5t126 52.5h29q74 0 126 -52.5t52 -125.5zM1608 170v348q0 35 -24.5 58.5t-59.5 23.5h-21q-35 0 -59.5 -23.5t-24.5 -58.5
v-348q0 -35 24.5 -58.5t59.5 -23.5h21q35 0 59.5 23.5t24.5 58.5z" />
    <glyph glyph-name="guilsinglleft" unicode="&#x2039;" horiz-adv-x="622" 
d="M500 125l-41 -41l-377 383l377 383l41 -41l-250 -342z" />
    <glyph glyph-name="guilsinglright" unicode="&#x203a;" horiz-adv-x="622" 
d="M164 84l-41 41l250 342l-250 342l41 41l377 -383z" />
    <glyph glyph-name="fraction" unicode="&#x2044;" horiz-adv-x="935" 
d="M117 0h-115l817 1434h115z" />
    <glyph glyph-name="Euro" unicode="&#x20ac;" horiz-adv-x="1155" 
d="M637 553h-283v-221q0 -94 68 -162t162 -68h90q94 0 161.5 68t67.5 162v57l129 -20v-37q0 -146 -103 -249t-249 -103h-102q-146 0 -249.5 103t-103.5 249v221h-143v102h143v123h-143v103h143v221q0 146 103.5 249t249.5 103h102q146 0 249 -103t103 -249v-37l-129 -21v58
q0 94 -67.5 161.5t-161.5 67.5h-90q-94 0 -162 -67.5t-68 -161.5v-221h473l-59 -103h-414v-123h342z" />
    <glyph glyph-name="trademark" unicode="&#x2122;" horiz-adv-x="1474" 
d="M1331 758h-104v379l-185 -379h-55l-184 377v-377h-107v676h64l254 -519l256 519h61v-676zM598 1339h-205v-581h-106v581h-205v95h516v-95z" />
    <glyph glyph-name="Omega" unicode="&#x2126;" horiz-adv-x="1093" 
d="M592 1331h-90q-94 0 -162 -67.5t-68 -161.5v-764q0 -102 48 -165.5t141 -63.5h31v-109h-363v109h131q-56 47 -86.5 121t-30.5 163v709q0 146 103.5 249t249.5 103h102q146 0 249 -103t103 -249v-709q0 -88 -31 -162.5t-88 -121.5h134v-109h-363v109h39q89 4 134.5 67
t45.5 162v764q0 94 -67.5 161.5t-161.5 67.5z" />
    <glyph glyph-name="arrowleft" unicode="&#x2190;" horiz-adv-x="1802" 
d="M184 719l717 719l90 -90l-567 -568h1194v-127h-1194l567 -567l-90 -90l-717 719v4z" />
    <glyph glyph-name="arrowup" unicode="&#x2191;" horiz-adv-x="1810" 
d="M907 1434l719 -717l-90 -90l-567 567v-1194h-127v1194l-568 -567l-90 90l719 717h4z" />
    <glyph glyph-name="arrowright" unicode="&#x2192;" horiz-adv-x="1802" 
d="M901 1438l717 -719v-4l-717 -719l-90 90l567 567h-1194v127h1194l-567 568z" />
    <glyph glyph-name="arrowdown" unicode="&#x2193;" horiz-adv-x="1810" 
d="M1626 717l-719 -717h-4l-719 717l90 90l568 -567v1194h127v-1194l567 567z" />
    <glyph glyph-name="partialdiff" unicode="&#x2202;" 
d="M246 709v-435q0 -74 52 -126t126 -52h82q74 0 126 52t52 126v435q0 73 -52 125.5t-126 52.5h-82q-74 0 -126 -52.5t-52 -125.5zM283 1253l-101 64q42 63 108.5 100t143.5 37h72q124 0 212.5 -88t88.5 -213v-872q0 -125 -88.5 -213t-212.5 -88h-82q-124 0 -212.5 88
t-88.5 213v421q0 125 88.5 213.5t212.5 88.5h31q140 0 229 -107v262q0 73 -52 125.5t-126 52.5h-72q-47 0 -87.5 -22.5t-63.5 -61.5z" />
    <glyph glyph-name="Delta" unicode="&#x2206;" horiz-adv-x="1028" 
d="M20 0l482 1434h22l484 -1434h-988zM492 1096l-324 -973h655l-323 973l-4 53z" />
    <glyph glyph-name="product" unicode="&#x220f;" horiz-adv-x="1298" 
d="M82 1311v123h1135v-123h-164v-1311h-129v1311h-549v-1311h-129v1311h-164z" />
    <glyph glyph-name="summation" unicode="&#x2211;" horiz-adv-x="1011" 
d="M688 748v-62l-391 -563h633v-123h-828v61l455 656l-455 655v62h828v-123h-633z" />
    <glyph glyph-name="minus" unicode="&#x2212;" horiz-adv-x="1187" 
d="M82 782h1024v-129h-1024v129z" />
    <glyph glyph-name="radical" unicode="&#x221a;" horiz-adv-x="1021" 
d="M86 653v129h279l151 -467l4 -53l4 53l447 1387h129l-547 -1702h-68l-211 653h-188z" />
    <glyph glyph-name="infinity" unicode="&#x221e;" horiz-adv-x="1630" 
d="M524 258h-49q-146 0 -249 103t-103 249v62q0 146 103 249t249 103h49q90 0 166 -41.5t125 -112.5q49 71 125 112.5t166 41.5h49q146 0 249 -103t103 -249v-62q0 -146 -103 -249t-249 -103h-49q-90 0 -166 41.5t-125 112.5q-49 -71 -125 -112.5t-166 -41.5zM1106 387h49
q94 0 161.5 67.5t67.5 161.5v50q0 94 -67.5 161.5t-161.5 67.5h-49q-94 0 -161.5 -67.5t-67.5 -161.5v-50q0 -94 67.5 -161.5t161.5 -67.5zM475 387h49q94 0 162 67.5t68 161.5v50q0 94 -68 161.5t-162 67.5h-49q-94 0 -161.5 -67.5t-67.5 -161.5v-50q0 -94 67.5 -161.5
t161.5 -67.5z" />
    <glyph glyph-name="integral" unicode="&#x222b;" horiz-adv-x="786" 
d="M332 -207v1657q0 158 71.5 245t171.5 87q60 0 95 -30.5t35 -78.5q0 -43 -29.5 -73.5t-73.5 -30.5q-45 0 -75.5 28t-30.5 84q-41 -35 -41 -102v-1657q0 -158 -72 -245t-172 -87q-60 0 -94.5 30.5t-34.5 78.5q0 43 29 73.5t73 30.5q45 0 76 -28t31 -84q41 35 41 102z" />
    <glyph glyph-name="approxequal" unicode="&#x2248;" horiz-adv-x="1339" 
d="M897 514q73 0 112.5 37t39.5 100h127q0 -113 -71.5 -185.5t-209.5 -72.5q-66 0 -134.5 21.5t-115.5 48t-102.5 48t-98.5 21.5q-73 0 -112 -36.5t-39 -100.5h-129q0 112 73 185t209 73q66 0 133.5 -21.5t114.5 -48t103 -48t100 -21.5zM897 891q73 0 112.5 37t39.5 100h127
q0 -113 -71.5 -185.5t-209.5 -72.5q-66 0 -134.5 21.5t-115.5 48t-102.5 48t-98.5 21.5q-73 0 -112 -36.5t-39 -100.5h-129q0 112 73 185t209 73q66 0 133.5 -21.5t114.5 -48t103 -48t100 -21.5z" />
    <glyph glyph-name="notequal" unicode="&#x2260;" horiz-adv-x="1351" 
d="M164 592h330l211 252h-541v129h649l223 266h152l-223 -266h223v-129h-332l-211 -252h543v-129h-649l-224 -266h-151l223 266h-223v129z" />
    <glyph glyph-name="lessequal" unicode="&#x2264;" horiz-adv-x="1351" 
d="M164 827l1024 396v-129l-873 -334l873 -332v-129l-1024 395v133zM164 205h1024v-129h-1024v129z" />
    <glyph glyph-name="greaterequal" unicode="&#x2265;" horiz-adv-x="1351" 
d="M164 428l870 332l-870 334v129l1024 -396v-133l-1024 -395v129zM164 205h1024v-129h-1024v129z" />
    <glyph glyph-name="lozenge" unicode="&#x25ca;" horiz-adv-x="1062" 
d="M248 717l284 -516l283 516l-283 516zM102 717l396 717h67l396 -717l-396 -717h-67z" />
    <glyph glyph-name="commaaccent" unicode="&#xf6c3;" horiz-adv-x="440" 
d="M297 -164l-102 -440h-52v440h154z" />
    <glyph glyph-name="madslug" unicode="&#xf800;" horiz-adv-x="1753" 
d="M1286 88l4 -4q-199 -123 -416 -123q-153 0 -292 60t-239.5 161t-160 241.5t-59.5 295.5q0 130 43 250.5t107 191t126 70.5q47 0 73 -27.5t26 -77.5q0 -68 -60.5 -335t-60.5 -269q0 -22 35 -22q38 0 117.5 18.5t86.5 34.5q0 6 30 139t60.5 285.5t30.5 204.5
q0 82 -65.5 125t-165.5 43q-4 0 -12.5 -1t-12.5 -1q-6 -2 -14 -2l-4 6q196 123 411 123q154 0 294 -60t241 -161t161 -241.5t60 -295.5q0 -130 -43 -250.5t-107 -191t-126 -70.5q-47 0 -73 27t-26 77q0 69 60.5 334t60.5 268q0 25 -35 25q-38 0 -117.5 -18.5t-86.5 -34.5
q-10 -20 -65.5 -287t-55.5 -342q0 -82 65.5 -125t165.5 -43h25q10 0 14 2zM934 459q2 10 32.5 144.5t57.5 261t27 143.5q0 18 -33 18q-41 0 -107 -13.5t-92 -35.5q-2 -10 -32.5 -144.5t-57.5 -261t-27 -143.5q0 -20 33 -20q38 0 106 14.5t93 36.5z" />
    <glyph glyph-name="fi" unicode="&#xfb01;" horiz-adv-x="1038" 
d="M588 1317h-113q-61 0 -104 -43t-43 -105v-145h239v-117h-239v-907h-123v907h-185v117h185v139q0 110 80 190.5t190 80.5h113v-117zM885 1270h-144v164h144v-164zM874 0h-122v1024h122v-1024z" />
    <glyph glyph-name="fl" unicode="&#xfb02;" horiz-adv-x="1038" 
d="M588 1317h-113q-61 0 -104 -43t-43 -105v-145h239v-117h-239v-907h-123v907h-185v117h185v139q0 110 80 190.5t190 80.5h113v-117zM874 0h-122v1434h122v-1434z" />
    <glyph glyph-name="dieresis.cap" horiz-adv-x="950" 
d="M358 1640h-153v154h153v-154zM745 1640h-153v154h153v-154z" />
    <glyph glyph-name="circumflex.cap" horiz-adv-x="942" 
d="M532 1843l205 -246h-123l-143 164l-143 -164h-123l205 246h122z" />
    <glyph glyph-name="tilde.cap" horiz-adv-x="1069" 
d="M657 1729q41 0 63.5 31t22.5 83h95q0 -95 -47 -155t-136 -60q-42 0 -83.5 18t-69 39.5t-60 39.5t-59.5 18q-40 0 -62 -31t-22 -82h-94q0 95 46.5 154t135.5 59q40 0 79 -18t65.5 -39t60.5 -39t65 -18z" />
    <glyph glyph-name="acute.cap" horiz-adv-x="778" 
d="M573 1843l-276 -246h-92l164 246h204z" />
    <glyph glyph-name="caron.cap" horiz-adv-x="942" 
d="M737 1843l-205 -246h-122l-205 246h123l143 -164l143 164h123z" />
    <glyph glyph-name="grave.cap" horiz-adv-x="778" 
d="M481 1597l-276 246h205l163 -246h-92z" />
    <glyph glyph-name="ring.cap" horiz-adv-x="833" 
d="M205 1792q0 88 61.5 150.5t149.5 62.5t150.5 -62.5t62.5 -150.5t-62.5 -149.5t-150.5 -61.5t-149.5 61.5t-61.5 149.5zM307 1792q0 -44 32.5 -77.5t76.5 -33.5q46 0 78 33t32 78q0 48 -31.5 80.5t-78.5 32.5q-45 0 -77 -33t-32 -80z" />
    </font>
</defs>
</svg>
